<svg width="79" height="142" viewBox="0 0 79 142" fill="none" xmlns="http://www.w3.org/2000/svg">
<path d="M12.1323 141.878H8.84204V132.975H12.1287C13.0342 132.975 13.8154 133.152 14.4727 133.507C15.1304 133.862 15.6371 134.372 15.9936 135.037C16.3501 135.701 16.5285 136.497 16.5285 137.423C16.5285 138.351 16.3504 139.147 15.9947 139.813C15.6385 140.479 15.1318 140.989 14.4745 141.345C13.8171 141.701 13.0363 141.878 12.1323 141.878ZM10.9914 140.045H12.0485C12.5482 140.045 12.9712 139.96 13.3174 139.79C13.6634 139.619 13.9255 139.343 14.1043 138.959C14.2827 138.576 14.3721 138.064 14.3721 137.423C14.3721 136.783 14.282 136.272 14.1015 135.89C13.9213 135.507 13.6563 135.231 13.3069 135.062C12.9575 134.892 12.5274 134.807 12.0172 134.807H10.9914V140.045Z" fill="white"/>
<path d="M23.4633 132.975H21.314V141.878H23.4633V132.975Z" fill="white"/>
<path d="M28.2214 141.878V132.975H31.8977C32.5656 132.975 33.1423 133.094 33.6283 133.334C34.1139 133.574 34.4883 133.916 34.7516 134.36C35.0148 134.804 35.1464 135.331 35.1464 135.941C35.1464 136.556 35.012 137.079 34.7428 137.511C34.4739 137.942 34.0917 138.27 33.5959 138.495C33.1005 138.719 32.5121 138.832 31.8315 138.832H29.5083V137.134H31.4353C31.7576 137.134 32.0282 137.092 32.2478 137.007C32.4671 136.923 32.6335 136.792 32.7468 136.616C32.8601 136.439 32.9168 136.214 32.9168 135.941C32.9168 135.666 32.8601 135.437 32.7465 135.255C32.6328 135.073 32.466 134.937 32.2464 134.846C32.0268 134.755 31.7552 134.71 31.4318 134.71H30.3708V141.878H28.2214ZM33.2335 137.809L35.4525 141.878H33.1012L30.931 137.809H33.2335Z" fill="white"/>
<path d="M39.72 141.878V132.975H45.9285V134.724H41.8693V136.55H45.6082V138.299H41.8693V140.129H45.9285V141.878H39.72Z" fill="white"/>
<path d="M58.7971 136.202H56.6199C56.5935 135.978 56.5348 135.776 56.444 135.597C56.3532 135.418 56.2339 135.264 56.0857 135.135C55.9376 135.007 55.7634 134.909 55.5628 134.84C55.3622 134.772 55.1395 134.738 54.8949 134.738C54.4625 134.738 54.0909 134.844 53.7798 135.056C53.4687 135.268 53.2301 135.574 53.064 135.975C52.8979 136.375 52.8149 136.859 52.8149 137.426C52.8149 138.016 52.8993 138.511 53.0675 138.91C53.2361 139.31 53.475 139.61 53.7851 139.812C54.0947 140.014 54.4603 140.115 54.8809 140.115C55.1187 140.115 55.3355 140.084 55.5315 140.023C55.7272 139.961 55.8999 139.871 56.0492 139.753C56.1984 139.635 56.3219 139.492 56.4197 139.323C56.5172 139.154 56.584 138.962 56.6199 138.748L58.7971 138.762C58.758 139.154 58.6437 139.542 58.4547 139.926C58.2657 140.31 58.0053 140.658 57.6738 140.972C57.3424 141.285 56.9398 141.535 56.4665 141.721C55.9932 141.907 55.4509 142 54.8393 142C54.0335 142 53.3125 141.822 52.6759 141.468C52.0393 141.113 51.5371 140.595 51.1691 139.913C50.801 139.231 50.6169 138.402 50.6169 137.426C50.6169 136.445 50.8038 135.615 51.1779 134.934C51.5516 134.254 52.0572 133.737 52.6949 133.383C53.3325 133.029 54.0476 132.853 54.8393 132.853C55.3788 132.853 55.8774 132.927 56.3345 133.076C56.7913 133.225 57.1946 133.442 57.5433 133.728C57.8924 134.013 58.1753 134.363 58.3921 134.778C58.6088 135.193 58.744 135.667 58.7971 136.202Z" fill="white"/>
<path d="M62.9984 134.724V132.975H70.5251V134.724H67.8225V141.878H65.701V134.724H62.9984Z" fill="white"/>
<path fill-rule="evenodd" clip-rule="evenodd" d="M57.3344 0H20.5713C16.6448 0 13.4442 3.25482 13.4442 7.25469V78.3342V88.5971C13.4442 90.9083 15.2806 92.7815 17.5542 92.7815C19.8279 92.7823 21.6731 90.9083 21.6731 88.5962V78.2389V10.994C21.6731 9.54496 22.8449 8.37053 24.2966 8.37053C30.724 8.37053 47.1904 8.37052 53.6179 8.36965C54.3087 8.36965 54.9822 8.64686 55.4719 9.13832C55.9616 9.63065 56.2413 10.2979 56.2413 10.9931C56.2413 16.9911 56.2413 31.7541 56.2413 39.1522C56.2413 40.3118 55.7779 41.4233 54.9558 42.2435C54.1426 43.0638 53.032 43.5246 51.8689 43.5246H36.8716C32.9365 43.5246 29.7358 46.7786 29.7358 50.7785V72.0161C29.7358 74.3273 31.5809 76.2005 33.8546 76.2005C36.1282 76.2013 37.9735 74.3273 37.9647 72.0161V54.5186C37.9647 53.0696 39.1453 51.8951 40.5882 51.8951C45.8875 51.8951 57.3344 51.8943 57.3344 51.8943C59.302 51.8943 61.086 51.081 62.3802 49.7676C63.6744 48.4541 64.4702 46.6404 64.4702 44.6405V7.25469C64.4702 3.25395 61.2696 0 57.3344 0ZM33.9159 36.3294C34.9652 36.3294 35.9971 35.9027 36.7404 35.1602C37.4837 34.4178 37.9035 33.3912 37.9035 32.3427C37.9035 31.2933 37.4837 30.264 36.7404 29.5207C35.9971 28.7792 34.9652 28.3559 33.9159 28.3559C32.8665 28.3533 31.8433 28.7792 31.1 29.5207C30.3566 30.264 29.9282 31.2924 29.9369 32.3427C29.9369 33.3912 30.3566 34.4178 31.1 35.1602C31.8433 35.9027 32.8665 36.3294 33.9159 36.3294ZM48.7908 23.7789C49.5341 23.0364 49.9538 22.0107 49.9538 20.9604C49.9538 19.911 49.5341 18.8835 48.7908 18.1411C48.0475 17.4013 47.0155 16.9745 45.9661 16.9745C44.9168 16.9745 43.8937 17.3987 43.1503 18.1411C42.407 18.8835 41.9786 19.9102 41.9786 20.9622C41.9786 22.0107 42.407 23.0364 43.1503 23.7789C43.8937 24.5213 44.9168 24.9481 45.9661 24.9481C47.0155 24.9481 48.0475 24.5213 48.7908 23.7789ZM33.8809 24.9481C34.9302 24.9481 35.9534 24.5213 36.6967 23.7789C37.44 23.0373 37.8685 22.0107 37.8685 20.9622C37.8685 19.9119 37.44 18.8835 36.6967 18.1411C35.9534 17.3987 34.9302 16.9745 33.8809 16.9745C32.8315 16.9745 31.7996 17.3987 31.0563 18.142C30.3217 18.8844 29.8933 19.9119 29.8933 20.9604C29.8933 22.0107 30.3217 23.0373 31.0563 23.7789C31.7996 24.5213 32.8315 24.9481 33.8809 24.9481Z" fill="white"/>
<path d="M9.23475 117.037C9.23475 115.777 8.95159 114.772 8.38526 114.023C7.81894 113.256 6.97858 112.872 5.8642 112.872C5.49883 112.872 5.16086 112.89 4.8503 112.927C4.53973 112.945 4.28397 112.973 4.08302 113.009V120.381C4.33878 120.545 4.66761 120.682 5.06952 120.792C5.4897 120.901 5.90987 120.956 6.33005 120.956C8.26651 120.956 9.23475 119.65 9.23475 117.037ZM13.4 116.928C13.4 118.042 13.263 119.056 12.9889 119.969C12.7149 120.883 12.313 121.668 11.7832 122.326C11.2534 122.984 10.5958 123.495 9.81021 123.861C9.02466 124.226 8.12037 124.409 7.09733 124.409C6.531 124.409 6.00122 124.354 5.50797 124.244C5.01472 124.135 4.53973 123.979 4.08302 123.778V129.204H0V110.214C0.365371 110.104 0.785547 110.004 1.26053 109.913C1.73551 109.803 2.22876 109.712 2.74028 109.639C3.27007 109.566 3.79986 109.511 4.32964 109.474C4.8777 109.419 5.39835 109.392 5.89161 109.392C7.07906 109.392 8.13864 109.575 9.07033 109.94C10.002 110.287 10.7876 110.79 11.427 111.447C12.0664 112.087 12.5505 112.872 12.8793 113.804C13.2264 114.736 13.4 115.777 13.4 116.928Z" fill="white"/>
<path d="M30.0202 116.9C30.0202 118.033 29.8558 119.074 29.527 120.024C29.1981 120.956 28.7231 121.76 28.102 122.436C27.4809 123.093 26.7319 123.605 25.855 123.97C24.9964 124.336 24.0281 124.518 22.9503 124.518C21.8907 124.518 20.9225 124.336 20.0456 123.97C19.187 123.605 18.4471 123.093 17.826 122.436C17.2048 121.76 16.7207 120.956 16.3736 120.024C16.0265 119.074 15.853 118.033 15.853 116.9C15.853 115.768 16.0265 114.736 16.3736 113.804C16.739 112.872 17.2322 112.077 17.8534 111.42C18.4928 110.762 19.2418 110.251 20.1004 109.885C20.9773 109.52 21.9272 109.337 22.9503 109.337C23.9916 109.337 24.9416 109.52 25.8002 109.885C26.6771 110.251 27.4261 110.762 28.0472 111.42C28.6683 112.077 29.1525 112.872 29.4996 113.804C29.8467 114.736 30.0202 115.768 30.0202 116.9ZM25.855 116.9C25.855 115.64 25.5992 114.653 25.0877 113.941C24.5945 113.21 23.882 112.845 22.9503 112.845C22.0186 112.845 21.297 113.21 20.7855 113.941C20.2739 114.653 20.0182 115.64 20.0182 116.9C20.0182 118.161 20.2739 119.166 20.7855 119.915C21.297 120.645 22.0186 121.011 22.9503 121.011C23.882 121.011 24.5945 120.645 25.0877 119.915C25.5992 119.166 25.855 118.161 25.855 116.9Z" fill="white"/>
<path d="M38.9377 124.409C37.7502 124.39 36.782 124.263 36.033 124.025C35.3022 123.788 34.7177 123.459 34.2792 123.039C33.859 122.6 33.5667 122.079 33.4023 121.477C33.2562 120.855 33.1831 120.161 33.1831 119.394V103.528L37.2661 102.87V118.572C37.2661 118.937 37.2935 119.266 37.3483 119.558C37.4031 119.851 37.5036 120.097 37.6498 120.298C37.8142 120.499 38.0425 120.664 38.3348 120.792C38.6271 120.919 39.0199 121.002 39.5131 121.038L38.9377 124.409Z" fill="white"/>
<path d="M47.6081 124.409C46.4207 124.39 45.4524 124.263 44.7034 124.025C43.9727 123.788 43.3881 123.459 42.9496 123.039C42.5294 122.6 42.2372 122.079 42.0727 121.477C41.9266 120.855 41.8535 120.161 41.8535 119.394V103.528L45.9365 102.87V118.572C45.9365 118.937 45.9639 119.266 46.0187 119.558C46.0735 119.851 46.174 120.097 46.3202 120.298C46.4846 120.499 46.7129 120.664 47.0052 120.792C47.2975 120.919 47.6903 121.002 48.1836 121.038L47.6081 124.409Z" fill="white"/>
<path d="M49.8389 117.037C49.8389 115.759 50.0307 114.644 50.4143 113.694C50.8162 112.726 51.3369 111.922 51.9763 111.283C52.6157 110.643 53.3464 110.159 54.1685 109.83C55.0089 109.502 55.8675 109.337 56.7444 109.337C58.7904 109.337 60.4072 109.967 61.5947 111.228C62.7821 112.47 63.3759 114.306 63.3759 116.736C63.3759 116.973 63.3667 117.238 63.3485 117.531C63.3302 117.805 63.3119 118.051 63.2936 118.27H54.0315C54.1228 119.111 54.5156 119.778 55.2098 120.271C55.904 120.764 56.8357 121.011 58.0049 121.011C58.7539 121.011 59.4847 120.947 60.1971 120.819C60.9279 120.673 61.5216 120.499 61.9783 120.298L62.5264 123.614C62.3071 123.724 62.0149 123.833 61.6495 123.943C61.2841 124.052 60.8731 124.144 60.4164 124.217C59.9779 124.308 59.5029 124.381 58.9914 124.436C58.4799 124.491 57.9684 124.518 57.4568 124.518C56.1598 124.518 55.0271 124.327 54.0589 123.943C53.1089 123.559 52.3143 123.039 51.6749 122.381C51.0537 121.705 50.5879 120.91 50.2773 119.997C49.985 119.083 49.8389 118.097 49.8389 117.037ZM59.4298 115.475C59.4116 115.128 59.3476 114.79 59.238 114.462C59.1467 114.133 58.9914 113.84 58.7722 113.585C58.5712 113.329 58.3063 113.119 57.9775 112.954C57.6669 112.79 57.2742 112.708 56.7992 112.708C56.3425 112.708 55.9497 112.79 55.6209 112.954C55.292 113.1 55.018 113.301 54.7988 113.557C54.5796 113.813 54.406 114.114 54.2781 114.462C54.1685 114.79 54.0863 115.128 54.0315 115.475H59.4298Z" fill="white"/>
<path d="M66.5267 110.214C67.221 110.013 68.1161 109.83 69.2122 109.666C70.3083 109.483 71.4593 109.392 72.665 109.392C73.889 109.392 74.9029 109.556 75.7067 109.885C76.5288 110.196 77.1773 110.643 77.6523 111.228C78.1273 111.813 78.4652 112.507 78.6662 113.311C78.8671 114.114 78.9676 115.01 78.9676 115.996V124.135H74.8846V116.489C74.8846 115.174 74.7111 114.242 74.364 113.694C74.0169 113.146 73.3683 112.872 72.4184 112.872C72.1261 112.872 71.8155 112.89 71.4867 112.927C71.1578 112.945 70.8655 112.973 70.6098 113.009V124.135H66.5267V110.214Z" fill="white"/>
</svg>
