<svg width="47" height="76" viewBox="0 0 47 76" fill="none" xmlns="http://www.w3.org/2000/svg">
<path fill-rule="evenodd" clip-rule="evenodd" d="M33.4832 0H12.0136C9.72054 0 7.85138 1.90081 7.85138 4.23673V45.7471V51.7406C7.85138 53.0904 8.92382 54.1843 10.2516 54.1843C11.5794 54.1848 12.6571 53.0904 12.6571 51.7401V45.6914V6.42047C12.6571 5.57425 13.3414 4.88838 14.1891 4.88838C17.9428 4.88838 27.5591 4.88838 31.3128 4.88787C31.7162 4.88787 32.1095 5.04976 32.3955 5.33677C32.6815 5.62429 32.8448 6.01395 32.8448 6.41996C32.8448 9.92282 32.8448 18.5444 32.8448 22.8649C32.8448 23.5421 32.5742 24.1912 32.0941 24.6702C31.6192 25.1492 30.9706 25.4184 30.2914 25.4184H21.533C19.2348 25.4184 17.3657 27.3187 17.3657 29.6546V42.0573C17.3657 43.4071 18.4432 44.501 19.771 44.501C21.0988 44.5015 22.1764 43.4071 22.1713 42.0573V31.8388C22.1713 30.9926 22.8608 30.3067 23.7034 30.3067C26.7983 30.3067 33.4832 30.3062 33.4832 30.3062C34.6323 30.3062 35.6741 29.8313 36.43 29.0642C37.1858 28.2971 37.6505 27.238 37.6505 26.07V4.23673C37.6505 1.9003 35.7814 0 33.4832 0ZM19.8068 21.2163C20.4196 21.2163 21.0223 20.9671 21.4563 20.5335C21.8904 20.1 22.1356 19.5004 22.1356 18.8881C22.1356 18.2752 21.8904 17.6742 21.4563 17.2401C21.0223 16.807 20.4196 16.5598 19.8068 16.5598C19.194 16.5583 18.5964 16.807 18.1623 17.2401C17.7282 17.6742 17.478 18.2747 17.4831 18.8881C17.4831 19.5004 17.7282 20.1 18.1623 20.5335C18.5964 20.9671 19.194 21.2163 19.8068 21.2163ZM28.4938 13.8868C28.9279 13.4533 29.173 12.8542 29.173 12.2409C29.173 11.628 28.9279 11.028 28.4938 10.5944C28.0597 10.1623 27.457 9.91312 26.8442 9.91312C26.2313 9.91312 25.6338 10.1608 25.1997 10.5944C24.7656 11.028 24.5154 11.6275 24.5154 12.2419C24.5154 12.8542 24.7656 13.4533 25.1997 13.8868C25.6338 14.3204 26.2313 14.5696 26.8442 14.5696C27.457 14.5696 28.0597 14.3204 28.4938 13.8868ZM19.7864 14.5696C20.3992 14.5696 20.9967 14.3204 21.4308 13.8868C21.8649 13.4538 22.1152 12.8542 22.1152 12.2419C22.1152 11.6285 21.8649 11.028 21.4308 10.5944C20.9967 10.1608 20.3992 9.91312 19.7864 9.91312C19.1735 9.91312 18.5709 10.1608 18.1368 10.5949C17.7078 11.0285 17.4576 11.6285 17.4576 12.2409C17.4576 12.8542 17.7078 13.4538 18.1368 13.8868C18.5709 14.3204 19.1735 14.5696 19.7864 14.5696Z" fill="#440F83"/>
<path d="M5.39309 68.3496C5.39309 67.6134 5.22772 67.0267 4.89699 66.5892C4.56625 66.1411 4.07549 65.9171 3.42469 65.9171C3.21131 65.9171 3.01394 65.9278 2.83257 65.9491C2.6512 65.9598 2.50184 65.9758 2.38448 65.9971V70.302C2.53384 70.398 2.72588 70.478 2.9606 70.542C3.20598 70.606 3.45136 70.6381 3.69674 70.6381C4.82764 70.6381 5.39309 69.8752 5.39309 68.3496ZM7.82558 68.2856C7.82558 68.9364 7.74556 69.5285 7.58553 70.0619C7.4255 70.5954 7.19078 71.0541 6.88139 71.4382C6.57199 71.8223 6.18791 72.121 5.72915 72.3344C5.27039 72.5478 4.74229 72.6545 4.14483 72.6545C3.8141 72.6545 3.50471 72.6225 3.21665 72.5584C2.92859 72.4944 2.6512 72.4037 2.38448 72.2864V75.455H0V64.3648C0.213376 64.3008 0.458759 64.2421 0.736148 64.1888C1.01354 64.1247 1.3016 64.0714 1.60032 64.0287C1.90972 63.986 2.21911 63.954 2.52851 63.9327C2.84857 63.9007 3.15263 63.8847 3.44069 63.8847C4.13417 63.8847 4.75296 63.9914 5.29707 64.2048C5.84118 64.4075 6.29993 64.7009 6.67334 65.0849C7.04675 65.4583 7.32948 65.9171 7.52151 66.4612C7.72422 67.0053 7.82558 67.6134 7.82558 68.2856Z" fill="#440F83"/>
<path d="M17.5318 68.2696C17.5318 68.931 17.4358 69.5392 17.2437 70.0939C17.0517 70.6381 16.7743 71.1075 16.4116 71.5022C16.0488 71.8863 15.6114 72.185 15.0993 72.3984C14.5979 72.6118 14.0324 72.7185 13.4029 72.7185C12.7842 72.7185 12.2187 72.6118 11.7066 72.3984C11.2052 72.185 10.7731 71.8863 10.4103 71.5022C10.0476 71.1075 9.76488 70.6381 9.56217 70.0939C9.35947 69.5392 9.25811 68.931 9.25811 68.2696C9.25811 67.6081 9.35947 67.0053 9.56217 66.4612C9.77555 65.9171 10.0636 65.453 10.4263 65.0689C10.7998 64.6849 11.2372 64.3861 11.7386 64.1728C12.2507 63.9594 12.8055 63.8527 13.4029 63.8527C14.0111 63.8527 14.5658 63.9594 15.0673 64.1728C15.5794 64.3861 16.0168 64.6849 16.3795 65.0689C16.7423 65.453 17.025 65.9171 17.2277 66.4612C17.4304 67.0053 17.5318 67.6081 17.5318 68.2696ZM15.0993 68.2696C15.0993 67.5334 14.9499 66.9573 14.6512 66.5412C14.3631 66.1145 13.9471 65.9011 13.4029 65.9011C12.8588 65.9011 12.4374 66.1145 12.1387 66.5412C11.84 66.9573 11.6906 67.5334 11.6906 68.2696C11.6906 69.0057 11.84 69.5925 12.1387 70.0299C12.4374 70.4567 12.8588 70.6701 13.4029 70.6701C13.9471 70.6701 14.3631 70.4567 14.6512 70.0299C14.9499 69.5925 15.0993 69.0057 15.0993 68.2696Z" fill="#440F83"/>
<path d="M22.7396 72.6545C22.0461 72.6438 21.4807 72.5691 21.0432 72.4304C20.6165 72.2917 20.2751 72.0997 20.019 71.8543C19.7736 71.5982 19.6029 71.2942 19.5069 70.9421C19.4216 70.5794 19.3789 70.174 19.3789 69.7259V60.46L21.7634 60.0759V69.2458C21.7634 69.4591 21.7794 69.6512 21.8114 69.8219C21.8434 69.9926 21.9021 70.1366 21.9874 70.254C22.0834 70.3713 22.2168 70.4674 22.3875 70.542C22.5582 70.6167 22.7876 70.6647 23.0756 70.6861L22.7396 72.6545Z" fill="#440F83"/>
<path d="M27.8031 72.6545C27.1096 72.6438 26.5442 72.5691 26.1068 72.4304C25.68 72.2917 25.3386 72.0997 25.0825 71.8543C24.8372 71.5982 24.6665 71.2942 24.5704 70.9421C24.4851 70.5794 24.4424 70.174 24.4424 69.7259V60.46L26.8269 60.0759V69.2458C26.8269 69.4591 26.8429 69.6512 26.8749 69.8219C26.9069 69.9926 26.9656 70.1366 27.0509 70.254C27.147 70.3713 27.2803 70.4674 27.451 70.542C27.6217 70.6167 27.8511 70.6647 28.1392 70.6861L27.8031 72.6545Z" fill="#440F83"/>
<path d="M29.1059 68.3496C29.1059 67.6028 29.2179 66.952 29.4419 66.3972C29.6766 65.8318 29.9807 65.3623 30.3541 64.9889C30.7275 64.6155 31.1543 64.3328 31.6344 64.1407C32.1251 63.9487 32.6266 63.8527 33.1387 63.8527C34.3336 63.8527 35.2778 64.2208 35.9712 64.9569C36.6647 65.6824 37.0115 66.7546 37.0115 68.1736C37.0115 68.3123 37.0061 68.4669 36.9954 68.6377C36.9848 68.7977 36.9741 68.9417 36.9634 69.0697H31.5544C31.6077 69.5605 31.8371 69.9499 32.2425 70.238C32.6479 70.526 33.192 70.6701 33.8748 70.6701C34.3122 70.6701 34.739 70.6327 35.1551 70.558C35.5818 70.4727 35.9286 70.3713 36.1953 70.254L36.5154 72.1904C36.3873 72.2544 36.2166 72.3184 36.0032 72.3824C35.7899 72.4464 35.5498 72.4998 35.2831 72.5424C35.0271 72.5958 34.7497 72.6385 34.4509 72.6705C34.1522 72.7025 33.8535 72.7185 33.5548 72.7185C32.7973 72.7185 32.1358 72.6064 31.5704 72.3824C31.0156 72.1584 30.5515 71.8543 30.1781 71.4702C29.8153 71.0755 29.5433 70.6114 29.3619 70.0779C29.1912 69.5445 29.1059 68.9684 29.1059 68.3496ZM34.707 67.4374C34.6963 67.2347 34.659 67.0373 34.595 66.8453C34.5416 66.6533 34.4509 66.4825 34.3229 66.3332C34.2056 66.1838 34.0509 66.0611 33.8588 65.9651C33.6774 65.8691 33.4481 65.8211 33.1707 65.8211C32.904 65.8211 32.6746 65.8691 32.4825 65.9651C32.2905 66.0505 32.1305 66.1678 32.0024 66.3172C31.8744 66.4665 31.7731 66.6426 31.6984 66.8453C31.6344 67.0373 31.5864 67.2347 31.5544 67.4374H34.707Z" fill="#440F83"/>
<path d="M38.8516 64.3648C39.257 64.2474 39.7798 64.1407 40.4199 64.0447C41.06 63.938 41.7322 63.8847 42.4363 63.8847C43.1511 63.8847 43.7432 63.9807 44.2127 64.1728C44.6927 64.3541 45.0715 64.6155 45.3489 64.9569C45.6263 65.2983 45.8236 65.7037 45.941 66.1732C46.0584 66.6426 46.117 67.1654 46.117 67.7415V72.4944H43.7326V68.0295C43.7326 67.2614 43.6312 66.7173 43.4285 66.3972C43.2258 66.0771 42.847 65.9171 42.2923 65.9171C42.1216 65.9171 41.9402 65.9278 41.7482 65.9491C41.5561 65.9598 41.3854 65.9758 41.236 65.9971V72.4944H38.8516V64.3648Z" fill="#440F83"/>
</svg>
