<svg width="78" height="141" viewBox="0 0 78 141" fill="none" xmlns="http://www.w3.org/2000/svg">
<path d="M11.984 140.14H8.73413V131.345H11.9806C12.8749 131.345 13.6465 131.52 14.2958 131.871C14.9454 132.222 15.446 132.726 15.7981 133.382C16.1502 134.038 16.3264 134.824 16.3264 135.739C16.3264 136.655 16.1505 137.442 15.7991 138.1C15.4474 138.757 14.9468 139.262 14.2975 139.613C13.6483 139.964 12.877 140.14 11.984 140.14ZM10.8572 138.329H11.9013C12.3949 138.329 12.8127 138.245 13.1547 138.077C13.4964 137.909 13.7553 137.635 13.9319 137.257C14.1081 136.878 14.1964 136.372 14.1964 135.739C14.1964 135.107 14.1074 134.602 13.9291 134.225C13.7511 133.847 13.4894 133.574 13.1443 133.407C12.7991 133.239 12.3744 133.156 11.8704 133.156H10.8572V138.329Z" fill="white"/>
<path d="M23.1768 131.345H21.0537V140.14H23.1768V131.345Z" fill="white"/>
<path d="M27.876 140.14V131.345H31.5072C32.1669 131.345 32.7366 131.464 33.2166 131.7C33.6963 131.937 34.0661 132.275 34.3261 132.713C34.5861 133.152 34.7161 133.673 34.7161 134.276C34.7161 134.883 34.5833 135.4 34.3174 135.826C34.0518 136.252 33.6744 136.576 33.1846 136.798C32.6952 137.02 32.1141 137.13 31.4418 137.13H29.1471V135.454H31.0505C31.3688 135.454 31.6361 135.412 31.853 135.329C32.0696 135.245 32.234 135.116 32.3459 134.942C32.4578 134.767 32.5138 134.545 32.5138 134.276C32.5138 134.004 32.4578 133.778 32.3455 133.598C32.2333 133.418 32.0685 133.283 31.8516 133.194C31.6347 133.104 31.3664 133.06 31.047 133.06H29.999V140.14H27.876ZM32.8266 136.12L35.0185 140.14H32.6959L30.5524 136.12H32.8266Z" fill="white"/>
<path d="M39.2339 140.14V131.345H45.3663V133.073H41.3569V134.877H45.05V136.605H41.3569V138.412H45.3663V140.14H39.2339Z" fill="white"/>
<path d="M58.0767 134.533H55.9262C55.9002 134.312 55.8421 134.113 55.7525 133.936C55.6628 133.759 55.5449 133.607 55.3986 133.48C55.2523 133.353 55.0802 133.256 54.8821 133.188C54.684 133.121 54.464 133.087 54.2224 133.087C53.7952 133.087 53.4282 133.192 53.1209 133.401C52.8136 133.611 52.578 133.914 52.4139 134.309C52.2499 134.705 52.1678 135.183 52.1678 135.743C52.1678 136.326 52.2512 136.814 52.4174 137.209C52.5839 137.603 52.8199 137.9 53.1261 138.099C53.432 138.299 53.7931 138.398 54.2085 138.398C54.4435 138.398 54.6576 138.368 54.8512 138.307C55.0444 138.247 55.2151 138.158 55.3625 138.041C55.5098 137.925 55.6318 137.783 55.7285 137.616C55.8248 137.449 55.8908 137.26 55.9262 137.048L58.0767 137.062C58.0382 137.45 57.9252 137.833 57.7386 138.212C57.5519 138.591 57.2947 138.935 56.9673 139.245C56.6398 139.554 56.2422 139.801 55.7747 139.985C55.3072 140.168 54.7716 140.26 54.1675 140.26C53.3715 140.26 52.6593 140.085 52.0305 139.735C51.4018 139.384 50.9058 138.872 50.5422 138.199C50.1786 137.526 49.9968 136.707 49.9968 135.743C49.9968 134.774 50.1814 133.953 50.5509 133.281C50.92 132.609 51.4195 132.098 52.0493 131.749C52.6791 131.4 53.3854 131.225 54.1675 131.225C54.7003 131.225 55.1928 131.299 55.6444 131.446C56.0955 131.593 56.4938 131.808 56.8383 132.09C57.1831 132.372 57.4626 132.717 57.6767 133.127C57.8908 133.537 58.0243 134.006 58.0767 134.533Z" fill="white"/>
<path d="M62.2271 133.073V131.345H69.6615V133.073H66.9921V140.14H64.8965V133.073H62.2271Z" fill="white"/>
<path fill-rule="evenodd" clip-rule="evenodd" d="M56.6319 0H20.3193C16.4409 0 13.2795 3.21494 13.2795 7.1658V77.3743V87.5115C13.2795 89.7944 15.0934 91.6446 17.3392 91.6446C19.585 91.6454 21.4076 89.7944 21.4076 87.5106V77.2802V10.8593C21.4076 9.428 22.5651 8.26796 23.9989 8.26796C30.3476 8.26796 46.6122 8.26796 52.9609 8.26709C53.6433 8.26709 54.3085 8.5409 54.7922 9.02634C55.2759 9.51264 55.5522 10.1717 55.5522 10.8584C55.5522 16.7829 55.5522 31.365 55.5522 38.6725C55.5522 39.8178 55.0945 40.9157 54.2825 41.7259C53.4792 42.5361 52.3822 42.9913 51.2334 42.9913H36.4199C32.5329 42.9913 29.3715 46.2054 29.3715 50.1562V71.1336C29.3715 73.4165 31.194 75.2667 33.4398 75.2667C35.6856 75.2676 37.5082 73.4165 37.4996 71.1336V53.8505C37.4996 52.4193 38.6657 51.2593 40.0909 51.2593C45.3253 51.2593 56.6319 51.2584 56.6319 51.2584C58.5754 51.2584 60.3375 50.4551 61.6159 49.1577C62.8943 47.8604 63.6803 46.0689 63.6803 44.0935V7.1658C63.6803 3.21407 60.5189 0 56.6319 0ZM33.5003 35.8843C34.5369 35.8843 35.5561 35.4627 36.2903 34.7294C37.0245 33.9961 37.4391 32.982 37.4391 31.9463C37.4391 30.9098 37.0245 29.8932 36.2903 29.159C35.5561 28.4265 34.5369 28.0084 33.5003 28.0084C32.4638 28.0059 31.4531 28.4265 30.7189 29.159C29.9847 29.8932 29.5615 30.909 29.5702 31.9463C29.5702 32.982 29.9847 33.9961 30.7189 34.7294C31.4531 35.4627 32.4638 35.8843 33.5003 35.8843ZM48.193 23.4875C48.9272 22.7542 49.3418 21.741 49.3418 20.7036C49.3418 19.6671 48.9272 18.6521 48.193 17.9188C47.4588 17.1881 46.4395 16.7665 45.403 16.7665C44.3665 16.7665 43.3559 17.1855 42.6217 17.9188C41.8875 18.6521 41.4643 19.6662 41.4643 20.7053C41.4643 21.741 41.8875 22.7542 42.6217 23.4875C43.3559 24.2208 44.3665 24.6424 45.403 24.6424C46.4395 24.6424 47.4588 24.2208 48.193 23.4875ZM33.4658 24.6424C34.5023 24.6424 35.5129 24.2208 36.2471 23.4875C36.9813 22.755 37.4046 21.741 37.4046 20.7053C37.4046 19.6679 36.9813 18.6521 36.2471 17.9188C35.5129 17.1855 34.5023 16.7665 33.4658 16.7665C32.4292 16.7665 31.41 17.1855 30.6758 17.9197C29.9502 18.653 29.527 19.6679 29.527 20.7036C29.527 21.741 29.9502 22.755 30.6758 23.4875C31.41 24.2208 32.4292 24.6424 33.4658 24.6424Z" fill="white"/>
<path d="M9.12159 115.604C9.12159 114.358 8.8419 113.366 8.28251 112.626C7.72313 111.868 6.89307 111.489 5.79235 111.489C5.43145 111.489 5.09762 111.507 4.79086 111.543C4.48411 111.562 4.23148 111.589 4.03299 111.625V118.906C4.28561 119.068 4.61042 119.203 5.0074 119.312C5.42243 119.42 5.83746 119.474 6.25249 119.474C8.16522 119.474 9.12159 118.184 9.12159 115.604ZM13.2358 115.495C13.2358 116.596 13.1004 117.597 12.8298 118.5C12.5591 119.402 12.1621 120.178 11.6388 120.827C11.1155 121.477 10.4659 121.982 9.69 122.343C8.91408 122.704 8.02086 122.885 7.01036 122.885C6.45098 122.885 5.92768 122.83 5.44047 122.722C4.95327 122.614 4.48411 122.461 4.03299 122.262V127.621H0V108.864C0.360894 108.756 0.775922 108.656 1.24508 108.566C1.71425 108.458 2.20145 108.368 2.7067 108.295C3.23 108.223 3.7533 108.169 4.27659 108.133C4.81793 108.079 5.33221 108.052 5.81941 108.052C6.99232 108.052 8.03891 108.232 8.95919 108.593C9.87947 108.936 10.6554 109.432 11.287 110.082C11.9185 110.713 12.3967 111.489 12.7215 112.41C13.0644 113.33 13.2358 114.358 13.2358 115.495Z" fill="white"/>
<path d="M29.6524 115.468C29.6524 116.587 29.49 117.616 29.1652 118.554C28.8403 119.474 28.3712 120.268 27.7577 120.936C27.1441 121.585 26.4043 122.091 25.5382 122.451C24.6901 122.812 23.7337 122.993 22.6691 122.993C21.6225 122.993 20.6661 122.812 19.8 122.451C18.9519 122.091 18.221 121.585 17.6075 120.936C16.994 120.268 16.5158 119.474 16.173 118.554C15.8301 117.616 15.6587 116.587 15.6587 115.468C15.6587 114.349 15.8301 113.33 16.173 112.41C16.5339 111.489 17.0211 110.704 17.6346 110.055C18.2662 109.405 19.006 108.9 19.8541 108.539C20.7202 108.178 21.6586 107.998 22.6691 107.998C23.6976 107.998 24.6359 108.178 25.484 108.539C26.3502 108.9 27.09 109.405 27.7035 110.055C28.3171 110.704 28.7952 111.489 29.1381 112.41C29.4809 113.33 29.6524 114.349 29.6524 115.468ZM25.5382 115.468C25.5382 114.223 25.2855 113.249 24.7803 112.545C24.2931 111.823 23.5893 111.462 22.6691 111.462C21.7488 111.462 21.036 111.823 20.5308 112.545C20.0255 113.249 19.7729 114.223 19.7729 115.468C19.7729 116.713 20.0255 117.706 20.5308 118.446C21.036 119.167 21.7488 119.528 22.6691 119.528C23.5893 119.528 24.2931 119.167 24.7803 118.446C25.2855 117.706 25.5382 116.713 25.5382 115.468Z" fill="white"/>
<path d="M38.4606 122.885C37.2877 122.867 36.3313 122.74 35.5915 122.506C34.8697 122.271 34.2922 121.946 33.8592 121.531C33.4441 121.098 33.1554 120.584 32.993 119.988C32.8487 119.375 32.7765 118.689 32.7765 117.931V102.259L36.8095 101.61V117.119C36.8095 117.48 36.8365 117.805 36.8907 118.094C36.9448 118.382 37.0441 118.626 37.1884 118.824C37.3508 119.023 37.5764 119.185 37.8651 119.312C38.1538 119.438 38.5418 119.519 39.029 119.555L38.4606 122.885Z" fill="white"/>
<path d="M47.0247 122.885C45.8518 122.867 44.8955 122.74 44.1556 122.506C43.4338 122.271 42.8564 121.946 42.4233 121.531C42.0083 121.098 41.7196 120.584 41.5572 119.988C41.4128 119.375 41.3407 118.689 41.3407 117.931V102.259L45.3736 101.61V117.119C45.3736 117.48 45.4007 117.805 45.4548 118.094C45.509 118.382 45.6082 118.626 45.7526 118.824C45.915 119.023 46.1406 119.185 46.4293 119.312C46.718 119.438 47.1059 119.519 47.5931 119.555L47.0247 122.885Z" fill="white"/>
<path d="M49.2282 115.604C49.2282 114.34 49.4176 113.24 49.7966 112.301C50.1936 111.345 50.7078 110.551 51.3394 109.919C51.971 109.288 52.6927 108.81 53.5048 108.485C54.3348 108.16 55.1829 107.998 56.0491 107.998C58.0701 107.998 59.667 108.62 60.8399 109.865C62.0128 111.092 62.5993 112.906 62.5993 115.306C62.5993 115.54 62.5903 115.802 62.5722 116.091C62.5542 116.361 62.5361 116.605 62.5181 116.822H53.3694C53.4596 117.652 53.8476 118.31 54.5333 118.797C55.219 119.285 56.1393 119.528 57.2941 119.528C58.034 119.528 58.7558 119.465 59.4595 119.339C60.1813 119.194 60.7677 119.023 61.2189 118.824L61.7602 122.1C61.5437 122.208 61.255 122.316 60.8941 122.424C60.5332 122.533 60.1272 122.623 59.676 122.695C59.243 122.785 58.7738 122.857 58.2686 122.912C57.7633 122.966 57.2581 122.993 56.7528 122.993C55.4716 122.993 54.3529 122.803 53.3965 122.424C52.4582 122.045 51.6732 121.531 51.0417 120.882C50.4281 120.214 49.968 119.429 49.6612 118.527C49.3725 117.625 49.2282 116.65 49.2282 115.604ZM58.7016 114.061C58.6836 113.718 58.6204 113.384 58.5122 113.059C58.4219 112.734 58.2686 112.446 58.052 112.193C57.8535 111.94 57.5919 111.733 57.2671 111.571C56.9603 111.408 56.5724 111.327 56.1032 111.327C55.6521 111.327 55.2641 111.408 54.9393 111.571C54.6145 111.715 54.3438 111.913 54.1273 112.166C53.9108 112.419 53.7393 112.716 53.613 113.059C53.5048 113.384 53.4236 113.718 53.3694 114.061H58.7016Z" fill="white"/>
<path d="M65.7116 108.864C66.3973 108.665 67.2814 108.485 68.3641 108.322C69.4468 108.142 70.5836 108.052 71.7746 108.052C72.9836 108.052 73.9851 108.214 74.779 108.539C75.591 108.846 76.2316 109.288 76.7008 109.865C77.1699 110.443 77.5038 111.128 77.7023 111.922C77.9007 112.716 78 113.601 78 114.575V122.614H73.967V115.062C73.967 113.763 73.7956 112.843 73.4527 112.301C73.1099 111.76 72.4693 111.489 71.531 111.489C71.2423 111.489 70.9355 111.507 70.6107 111.543C70.2859 111.562 69.9972 111.589 69.7446 111.625V122.614H65.7116V108.864Z" fill="white"/>
</svg>
