<svg width="46" height="83" viewBox="0 0 46 83" fill="none" xmlns="http://www.w3.org/2000/svg">
<path d="M7.06749 82.6466H5.15088V77.46H7.06544C7.59286 77.46 8.04793 77.5633 8.43085 77.7702C8.81396 77.977 9.10914 78.274 9.31679 78.6611C9.52444 79.0482 9.62837 79.5116 9.62837 80.0513C9.62837 80.5915 9.52464 81.0556 9.3174 81.4433C9.10996 81.8312 8.81478 82.1287 8.43187 82.3358C8.04896 82.543 7.5941 82.6466 7.06749 82.6466ZM6.40293 81.5788H7.0187C7.30978 81.5788 7.55617 81.5292 7.75788 81.4299C7.95938 81.3307 8.11209 81.1694 8.21623 80.9462C8.32015 80.723 8.37222 80.4247 8.37222 80.0513C8.37222 79.6785 8.31974 79.3807 8.21458 79.158C8.10963 78.9353 7.95528 78.7745 7.75173 78.6758C7.54818 78.577 7.29769 78.5276 7.00046 78.5276H6.40293V81.5788Z" fill="#440F83"/>
<path d="M13.6681 77.46H12.416V82.6466H13.6681V77.46Z" fill="#440F83"/>
<path d="M16.4399 82.6466V77.46H18.5814C18.9705 77.46 19.3064 77.5298 19.5895 77.6694C19.8724 77.809 20.0905 78.0082 20.2438 78.2668C20.3972 78.5255 20.4738 78.8326 20.4738 79.1882C20.4738 79.5464 20.3955 79.8511 20.2387 80.1024C20.0821 80.3536 19.8595 80.5446 19.5707 80.6755C19.2821 80.8063 18.9393 80.8718 18.5429 80.8718H17.1896V79.883H18.3121C18.4998 79.883 18.6575 79.8584 18.7854 79.8091C18.9131 79.7598 19.01 79.6837 19.076 79.5809C19.1421 79.4781 19.1751 79.3472 19.1751 79.1882C19.1751 79.0278 19.1421 78.8945 19.0758 78.7885C19.0096 78.6825 18.9125 78.603 18.7846 78.5502C18.6566 78.4973 18.4984 78.471 18.31 78.471H17.692V82.6466H16.4399ZM19.3595 80.2761L20.6522 82.6466H19.2825L18.0183 80.2761H19.3595Z" fill="#440F83"/>
<path d="M23.1377 82.6466V77.46H26.7542V78.479H24.3897V79.5427H26.5677V80.5618H24.3897V81.6275H26.7542V82.6466H23.1377Z" fill="#440F83"/>
<path d="M34.2504 79.3402H32.9822C32.9668 79.2095 32.9326 79.092 32.8797 78.9877C32.8268 78.8833 32.7573 78.7938 32.671 78.719C32.5847 78.6442 32.4833 78.5869 32.3664 78.547C32.2496 78.5072 32.1198 78.4872 31.9774 78.4872C31.7254 78.4872 31.509 78.5491 31.3278 78.6727C31.1466 78.7962 31.0076 78.9747 30.9108 79.208C30.8141 79.4413 30.7657 79.7231 30.7657 80.0534C30.7657 80.3971 30.8149 80.6853 30.9129 80.918C31.0111 81.1507 31.1502 81.3257 31.3308 81.4432C31.5112 81.5608 31.7242 81.6195 31.9692 81.6195C32.1077 81.6195 32.234 81.6016 32.3482 81.5658C32.4621 81.53 32.5628 81.4778 32.6497 81.409C32.7366 81.3403 32.8086 81.2568 32.8656 81.1583C32.9223 81.0599 32.9613 80.9482 32.9822 80.8232L34.2504 80.8314C34.2277 81.06 34.1611 81.286 34.051 81.5096C33.9409 81.7331 33.7892 81.9361 33.5961 82.1187C33.403 82.3012 33.1685 82.4466 32.8928 82.555C32.6171 82.6634 32.3012 82.7176 31.945 82.7176C31.4755 82.7176 31.0555 82.6143 30.6847 82.4076C30.3139 82.201 30.0214 81.8991 29.807 81.502C29.5926 81.1049 29.4854 80.622 29.4854 80.0534C29.4854 79.482 29.5942 78.9982 29.8121 78.6017C30.0298 78.2053 30.3244 77.9041 30.6958 77.6981C31.0672 77.4922 31.4837 77.3892 31.945 77.3892C32.2592 77.3892 32.5497 77.4325 32.8159 77.5193C33.082 77.6061 33.3169 77.7326 33.5201 77.899C33.7234 78.0653 33.8882 78.2692 34.0145 78.5108C34.1408 78.7524 34.2195 79.0289 34.2504 79.3402Z" fill="#440F83"/>
<path d="M36.6982 78.479V77.46H41.0827V78.479H39.5084V82.6466H38.2725V78.479H36.6982Z" fill="#440F83"/>
<path fill-rule="evenodd" clip-rule="evenodd" d="M33.3983 0H11.9832C9.69596 0 7.83154 1.89599 7.83154 4.22598V45.631V51.6093C7.83154 52.9557 8.90126 54.0468 10.2257 54.0468C11.5501 54.0473 12.625 52.9557 12.625 51.6088V45.5755V6.40418C12.625 5.5601 13.3076 4.87598 14.1532 4.87598C17.8973 4.87598 27.4893 4.87597 31.2334 4.87546C31.6358 4.87546 32.0281 5.03694 32.3134 5.32323C32.5986 5.61002 32.7616 5.99869 32.7616 6.40366C32.7616 9.89764 32.7616 18.4973 32.7616 22.8068C32.7616 23.4823 32.4916 24.1298 32.0128 24.6076C31.539 25.0854 30.8921 25.3538 30.2146 25.3538H21.4784C19.1861 25.3538 17.3217 27.2493 17.3217 29.5793V41.9506C17.3217 43.2969 18.3965 44.3881 19.7209 44.3881C21.0454 44.3886 22.1203 43.2969 22.1152 41.9506V31.758C22.1152 30.9139 22.8029 30.2298 23.6434 30.2298C26.7303 30.2298 33.3983 30.2293 33.3983 30.2293C34.5445 30.2293 35.5837 29.7556 36.3376 28.9905C37.0915 28.2253 37.5551 27.1688 37.5551 26.0038V4.22598C37.5551 1.89548 35.6906 0 33.3983 0ZM19.7566 21.1625C20.3679 21.1625 20.969 20.9139 21.402 20.4814C21.835 20.049 22.0795 19.4509 22.0795 18.8402C22.0795 18.2289 21.835 17.6293 21.402 17.1963C20.969 16.7644 20.3679 16.5178 19.7566 16.5178C19.1454 16.5163 18.5493 16.7644 18.1163 17.1963C17.6833 17.6293 17.4337 18.2284 17.4388 18.8402C17.4388 19.4509 17.6833 20.049 18.1163 20.4814C18.5493 20.9139 19.1454 21.1625 19.7566 21.1625ZM28.4215 13.8516C28.8545 13.4191 29.099 12.8216 29.099 12.2098C29.099 11.5985 28.8545 11 28.4215 10.5675C27.9886 10.1366 27.3874 9.88796 26.7761 9.88796C26.1649 9.88796 25.5689 10.135 25.1359 10.5675C24.7029 11 24.4533 11.598 24.4533 12.2108C24.4533 12.8216 24.7029 13.4191 25.1359 13.8516C25.5689 14.2841 26.1649 14.5327 26.7761 14.5327C27.3874 14.5327 27.9886 14.2841 28.4215 13.8516ZM19.7362 14.5327C20.3475 14.5327 20.9435 14.2841 21.3765 13.8516C21.8095 13.4196 22.0591 12.8216 22.0591 12.2108C22.0591 11.599 21.8095 11 21.3765 10.5675C20.9435 10.135 20.3475 9.88796 19.7362 9.88796C19.125 9.88796 18.5239 10.135 18.0909 10.568C17.663 11.0005 17.4134 11.599 17.4134 12.2098C17.4134 12.8216 17.663 13.4196 18.0909 13.8516C18.5239 14.2841 19.125 14.5327 19.7362 14.5327Z" fill="#440F83"/>
<path d="M5.3794 68.1765C5.3794 67.4422 5.21445 66.8569 4.88456 66.4206C4.55467 65.9737 4.06515 65.7502 3.416 65.7502C3.20316 65.7502 3.00629 65.7608 2.82538 65.7821C2.64447 65.7927 2.49549 65.8087 2.37843 65.83V70.1239C2.52741 70.2197 2.71896 70.2995 2.95308 70.3634C3.19784 70.4272 3.4426 70.4592 3.68736 70.4592C4.81539 70.4592 5.3794 69.6983 5.3794 68.1765ZM7.80572 68.1126C7.80572 68.7618 7.7259 69.3524 7.56628 69.8845C7.40665 70.4166 7.17253 70.8742 6.86392 71.2573C6.55531 71.6404 6.17221 71.9384 5.71461 72.1512C5.25702 72.364 4.73025 72.4704 4.13432 72.4704C3.80442 72.4704 3.49581 72.4385 3.20848 72.3747C2.92116 72.3108 2.64447 72.2204 2.37843 72.1033V75.2639H0V64.2018C0.212835 64.138 0.457595 64.0794 0.73428 64.0262C1.01097 63.9624 1.29829 63.9092 1.59626 63.8666C1.90487 63.824 2.21348 63.7921 2.52209 63.7708C2.84134 63.7389 3.14463 63.7229 3.43196 63.7229C4.12367 63.7229 4.7409 63.8293 5.28362 64.0422C5.82635 64.2444 6.28395 64.537 6.65641 64.9201C7.02887 65.2926 7.31088 65.7502 7.50243 66.2929C7.70462 66.8356 7.80572 67.4422 7.80572 68.1126Z" fill="#440F83"/>
<path d="M17.4873 68.0967C17.4873 68.7565 17.3915 69.3631 17.2 69.9164C17.0084 70.4592 16.7317 70.9274 16.3699 71.3211C16.0081 71.7042 15.5718 72.0022 15.061 72.215C14.5608 72.4279 13.9968 72.5343 13.3689 72.5343C12.7517 72.5343 12.1877 72.4279 11.6769 72.215C11.1767 72.0022 10.7457 71.7042 10.3839 71.3211C10.0221 70.9274 9.7401 70.4592 9.53791 69.9164C9.33572 69.3631 9.23462 68.7565 9.23462 68.0967C9.23462 67.4369 9.33572 66.8356 9.53791 66.2929C9.75074 65.7502 10.0381 65.2873 10.3999 64.9042C10.7724 64.5211 11.2087 64.2231 11.7088 64.0103C12.2196 63.7974 12.773 63.691 13.3689 63.691C13.9755 63.691 14.5289 63.7974 15.029 64.0103C15.5399 64.2231 15.9762 64.5211 16.338 64.9042C16.6998 65.2873 16.9818 65.7502 17.184 66.2929C17.3862 66.8356 17.4873 67.4369 17.4873 68.0967ZM15.061 68.0967C15.061 67.3624 14.912 66.7878 14.614 66.3727C14.3267 65.9471 13.9117 65.7342 13.3689 65.7342C12.8262 65.7342 12.4059 65.9471 12.1079 66.3727C11.8099 66.7878 11.6609 67.3624 11.6609 68.0967C11.6609 68.831 11.8099 69.4163 12.1079 69.8526C12.4059 70.2782 12.8262 70.4911 13.3689 70.4911C13.9117 70.4911 14.3267 70.2782 14.614 69.8526C14.912 69.4163 15.061 68.831 15.061 68.0967Z" fill="#440F83"/>
<path d="M22.6819 72.4704C21.9902 72.4598 21.4261 72.3853 20.9898 72.247C20.5642 72.1086 20.2236 71.9171 19.9682 71.6723C19.7235 71.4169 19.5532 71.1136 19.4574 70.7624C19.3723 70.4006 19.3297 69.9962 19.3297 69.5493V60.3069L21.7082 59.9238V69.0704C21.7082 69.2832 21.7241 69.4748 21.756 69.6451C21.788 69.8153 21.8465 69.959 21.9316 70.076C22.0274 70.1931 22.1604 70.2889 22.3307 70.3634C22.501 70.4379 22.7298 70.4858 23.0171 70.507L22.6819 72.4704Z" fill="#440F83"/>
<path d="M27.7325 72.4704C27.0408 72.4598 26.4768 72.3853 26.0405 72.247C25.6148 72.1086 25.2743 71.9171 25.0189 71.6723C24.7741 71.4169 24.6039 71.1136 24.5081 70.7624C24.423 70.4006 24.3804 69.9962 24.3804 69.5493V60.3069L26.7588 59.9238V69.0704C26.7588 69.2832 26.7748 69.4748 26.8067 69.6451C26.8386 69.8153 26.8972 69.959 26.9823 70.076C27.0781 70.1931 27.2111 70.2889 27.3814 70.3634C27.5516 70.4379 27.7804 70.4858 28.0678 70.507L27.7325 72.4704Z" fill="#440F83"/>
<path d="M29.032 68.1765C29.032 67.4316 29.1437 66.7824 29.3672 66.2291C29.6013 65.665 29.9046 65.1968 30.2771 64.8243C30.6495 64.4519 31.0752 64.1699 31.5541 63.9783C32.0436 63.7868 32.5438 63.691 33.0546 63.691C34.2464 63.691 35.1882 64.0581 35.88 64.7924C36.5717 65.5161 36.9175 66.5856 36.9175 68.0009C36.9175 68.1393 36.9122 68.2936 36.9016 68.4638C36.8909 68.6235 36.8803 68.7671 36.8696 68.8948H31.4743C31.5275 69.3843 31.7563 69.7728 32.1607 70.0601C32.5651 70.3474 33.1078 70.4911 33.7889 70.4911C34.2252 70.4911 34.6508 70.4538 35.0659 70.3793C35.4915 70.2942 35.8374 70.1931 36.1034 70.076L36.4227 72.0075C36.295 72.0714 36.1247 72.1352 35.9119 72.1991C35.699 72.2629 35.4596 72.3161 35.1936 72.3587C34.9382 72.4119 34.6615 72.4545 34.3635 72.4864C34.0655 72.5183 33.7676 72.5343 33.4696 72.5343C32.714 72.5343 32.0543 72.4226 31.4902 72.1991C30.9369 71.9756 30.474 71.6723 30.1015 71.2892C29.7397 70.8955 29.4683 70.4325 29.2874 69.9005C29.1171 69.3684 29.032 68.7937 29.032 68.1765ZM34.6189 67.2666C34.6083 67.0644 34.571 66.8676 34.5072 66.676C34.454 66.4845 34.3635 66.3142 34.2358 66.1652C34.1187 66.0162 33.9644 65.8938 33.7729 65.7981C33.592 65.7023 33.3632 65.6544 33.0865 65.6544C32.8205 65.6544 32.5917 65.7023 32.4001 65.7981C32.2086 65.8832 32.0489 66.0003 31.9212 66.1492C31.7935 66.2982 31.6924 66.4738 31.6179 66.676C31.5541 66.8676 31.5062 67.0644 31.4743 67.2666H34.6189Z" fill="#440F83"/>
<path d="M38.753 64.2018C39.1574 64.0847 39.6788 63.9783 40.3173 63.8826C40.9558 63.7761 41.6262 63.7229 42.3286 63.7229C43.0416 63.7229 43.6322 63.8187 44.1004 64.0103C44.5793 64.1912 44.9571 64.4519 45.2338 64.7924C45.5105 65.133 45.7074 65.5373 45.8244 66.0056C45.9415 66.4738 46 66.9953 46 67.5699V72.3108H43.6216V67.8572C43.6216 67.091 43.5205 66.5483 43.3183 66.2291C43.1161 65.9098 42.7383 65.7502 42.1849 65.7502C42.0147 65.7502 41.8338 65.7608 41.6422 65.7821C41.4507 65.7927 41.2804 65.8087 41.1314 65.83V72.3108H38.753V64.2018Z" fill="#440F83"/>
</svg>
