<svg width="40" height="46" viewBox="0 0 40 46" fill="none" xmlns="http://www.w3.org/2000/svg">
<g clip-path="url(#clip0_295_226839)">
<path d="M11.6865 43.1192H10.6865V40.4131H11.6854C11.9606 40.4131 12.198 40.467 12.3978 40.5749C12.5977 40.6829 12.7517 40.8378 12.86 41.0398C12.9684 41.2417 13.0226 41.4835 13.0226 41.7651C13.0226 42.0469 12.9685 42.2891 12.8604 42.4914C12.7521 42.6937 12.5981 42.8489 12.3983 42.957C12.1986 43.0651 11.9612 43.1192 11.6865 43.1192ZM11.3398 42.5621H11.661C11.8129 42.5621 11.9415 42.5362 12.0467 42.4844C12.1518 42.4326 12.2315 42.3485 12.2858 42.232C12.3401 42.1155 12.3672 41.9599 12.3672 41.7651C12.3672 41.5706 12.3398 41.4152 12.285 41.299C12.2302 41.1828 12.1497 41.099 12.0435 41.0474C11.9373 40.9959 11.8066 40.9701 11.6515 40.9701H11.3398V42.5621Z" fill="#440F83"/>
<path d="M15.1303 40.4131H14.4771V43.1192H15.1303V40.4131Z" fill="#440F83"/>
<path d="M16.5767 43.1192V40.4131H17.694C17.8969 40.4131 18.0722 40.4495 18.2199 40.5223C18.3675 40.5952 18.4813 40.6991 18.5613 40.834C18.6413 40.969 18.6813 41.1292 18.6813 41.3148C18.6813 41.5017 18.6404 41.6606 18.5586 41.7917C18.4769 41.9228 18.3608 42.0225 18.2101 42.0908C18.0595 42.159 17.8807 42.1932 17.6738 42.1932H16.9678V41.6773H17.5534C17.6514 41.6773 17.7336 41.6645 17.8004 41.6387C17.867 41.613 17.9176 41.5733 17.952 41.5197C17.9865 41.466 18.0037 41.3977 18.0037 41.3148C18.0037 41.2311 17.9865 41.1616 17.9519 41.1062C17.9174 41.0509 17.8667 41.0095 17.7999 40.9819C17.7332 40.9543 17.6506 40.9406 17.5524 40.9406H17.2299V43.1192H16.5767ZM18.0999 41.8824L18.7743 43.1192H18.0597L17.4002 41.8824H18.0999Z" fill="#440F83"/>
<path d="M20.0708 43.1192V40.4131H21.9577V40.9448H20.724V41.4998H21.8604V42.0314H20.724V42.5874H21.9577V43.1192H20.0708Z" fill="#440F83"/>
<path d="M25.8685 41.3944H25.2068C25.1987 41.3262 25.1809 41.2649 25.1533 41.2105C25.1257 41.156 25.0894 41.1093 25.0444 41.0703C24.9994 41.0313 24.9464 41.0013 24.8855 40.9806C24.8245 40.9598 24.7568 40.9494 24.6825 40.9494C24.5511 40.9494 24.4381 40.9816 24.3436 41.0461C24.249 41.1106 24.1765 41.2037 24.126 41.3254C24.0756 41.4472 24.0503 41.5942 24.0503 41.7665C24.0503 41.9458 24.076 42.0962 24.1271 42.2176C24.1783 42.339 24.251 42.4303 24.3452 42.4916C24.4393 42.553 24.5504 42.5836 24.6782 42.5836C24.7505 42.5836 24.8164 42.5743 24.876 42.5556C24.9354 42.5369 24.9879 42.5097 25.0333 42.4738C25.0786 42.4379 25.1162 42.3943 25.1459 42.343C25.1755 42.2916 25.1959 42.2333 25.2068 42.1682L25.8685 42.1724C25.8566 42.2917 25.8218 42.4096 25.7644 42.5263C25.707 42.6429 25.6278 42.7488 25.5271 42.844C25.4263 42.9393 25.304 43.0151 25.1601 43.0717C25.0163 43.1283 24.8515 43.1565 24.6656 43.1565C24.4207 43.1565 24.2016 43.1026 24.0081 42.9948C23.8146 42.887 23.662 42.7295 23.5501 42.5223C23.4383 42.3151 23.3823 42.0632 23.3823 41.7665C23.3823 41.4684 23.4391 41.2159 23.5528 41.0091C23.6664 40.8023 23.8201 40.6451 24.0139 40.5377C24.2076 40.4302 24.425 40.3765 24.6656 40.3765C24.8296 40.3765 24.9811 40.3991 25.12 40.4444C25.2588 40.4896 25.3814 40.5557 25.4874 40.6424C25.5935 40.7292 25.6795 40.8356 25.7454 40.9617C25.8112 41.0877 25.8523 41.232 25.8685 41.3944Z" fill="#440F83"/>
<path d="M27.146 40.9448V40.4131H29.4335V40.9448H28.6122V43.1192H27.9674V40.9448H27.146Z" fill="#440F83"/>
<path fill-rule="evenodd" clip-rule="evenodd" d="M25.4256 0H14.2525C13.0592 0 12.0864 0.989211 12.0864 2.20486V23.8075V26.9266C12.0864 27.629 12.6445 28.1983 13.3356 28.1983C14.0266 28.1986 14.5874 27.629 14.5874 26.9263V23.7785V3.34131C14.5874 2.90092 14.9435 2.54399 15.3847 2.54399C17.3381 2.54399 22.3426 2.54399 24.2961 2.54372C24.506 2.54372 24.7107 2.62797 24.8596 2.77734C25.0084 2.92697 25.0934 3.12975 25.0934 3.34104C25.0934 5.16398 25.0934 9.65078 25.0934 11.8992C25.0934 12.2516 24.9526 12.5894 24.7027 12.8387C24.4556 13.088 24.118 13.2281 23.7645 13.2281H19.2065C18.0105 13.2281 17.0378 14.217 17.0378 15.4327V21.8873C17.0378 22.5897 17.5986 23.159 18.2896 23.159C18.9806 23.1593 19.5414 22.5897 19.5387 21.8873V16.5694C19.5387 16.129 19.8975 15.7721 20.3361 15.7721C21.9467 15.7721 25.4256 15.7718 25.4256 15.7718C26.0236 15.7718 26.5658 15.5246 26.9591 15.1255C27.3525 14.7263 27.5944 14.175 27.5944 13.5672V2.20486C27.5944 0.988946 26.6216 0 25.4256 0ZM18.3082 11.0413C18.6271 11.0413 18.9407 10.9116 19.1667 10.686C19.3926 10.4603 19.5201 10.1483 19.5201 9.82964C19.5201 9.51072 19.3926 9.1979 19.1667 8.972C18.9407 8.74662 18.6271 8.61798 18.3082 8.61798C17.9893 8.61719 17.6783 8.74662 17.4524 8.972C17.2265 9.1979 17.0963 9.51045 17.0989 9.82964C17.0989 10.1483 17.2265 10.4603 17.4524 10.686C17.6783 10.9116 17.9893 11.0413 18.3082 11.0413ZM22.829 7.22692C23.0549 7.00128 23.1825 6.68953 23.1825 6.37033C23.1825 6.05141 23.0549 5.73912 22.829 5.51348C22.6031 5.28864 22.2895 5.15894 21.9706 5.15894C21.6516 5.15894 21.3407 5.28784 21.1148 5.51348C20.8889 5.73912 20.7586 6.05114 20.7586 6.37087C20.7586 6.68953 20.8889 7.00128 21.1148 7.22692C21.3407 7.45256 21.6516 7.58226 21.9706 7.58226C22.2895 7.58226 22.6031 7.45256 22.829 7.22692ZM18.2976 7.58226C18.6165 7.58226 18.9274 7.45256 19.1534 7.22692C19.3793 7.00155 19.5095 6.68953 19.5095 6.37087C19.5095 6.05167 19.3793 5.73912 19.1534 5.51348C18.9274 5.28784 18.6165 5.15894 18.2976 5.15894C17.9786 5.15894 17.665 5.28784 17.4391 5.51374C17.2159 5.73939 17.0857 6.05167 17.0857 6.37033C17.0857 6.68953 17.2159 7.00155 17.4391 7.22692C17.665 7.45256 17.9786 7.58226 18.2976 7.58226Z" fill="#440F83"/>
<path d="M10.8066 35.5704C10.8066 35.1873 10.7206 34.8819 10.5485 34.6543C10.3763 34.4211 10.1209 34.3045 9.78226 34.3045C9.67122 34.3045 9.5685 34.31 9.47411 34.3211C9.37972 34.3267 9.30199 34.335 9.24092 34.3461V36.5864C9.31865 36.6364 9.41859 36.6781 9.54074 36.7114C9.66844 36.7447 9.79614 36.7613 9.92384 36.7613C10.5124 36.7613 10.8066 36.3644 10.8066 35.5704ZM12.0725 35.5371C12.0725 35.8758 12.0309 36.1839 11.9476 36.4615C11.8643 36.7391 11.7422 36.9779 11.5812 37.1778C11.4202 37.3776 11.2203 37.5331 10.9815 37.6441C10.7428 37.7552 10.468 37.8107 10.157 37.8107C9.98492 37.8107 9.8239 37.794 9.67399 37.7607C9.52408 37.7274 9.37972 37.6802 9.24092 37.6192V39.2682H8V33.4966C8.11104 33.4633 8.23875 33.4328 8.3831 33.405C8.52746 33.3717 8.67737 33.344 8.83283 33.3217C8.99385 33.2995 9.15486 33.2829 9.31587 33.2718C9.48244 33.2551 9.64068 33.2468 9.79059 33.2468C10.1515 33.2468 10.4735 33.3023 10.7567 33.4134C11.0398 33.5188 11.2786 33.6715 11.4729 33.8714C11.6672 34.0657 11.8144 34.3045 11.9143 34.5876C12.0198 34.8708 12.0725 35.1873 12.0725 35.5371Z" fill="#440F83"/>
<path d="M17.1238 35.5287C17.1238 35.873 17.0738 36.1895 16.9739 36.4782C16.874 36.7613 16.7296 37.0056 16.5408 37.2111C16.352 37.4109 16.1244 37.5664 15.8579 37.6775C15.5969 37.7885 15.3027 37.844 14.9751 37.844C14.6531 37.844 14.3588 37.7885 14.0923 37.6775C13.8313 37.5664 13.6065 37.4109 13.4177 37.2111C13.2289 37.0056 13.0818 36.7613 12.9763 36.4782C12.8708 36.1895 12.8181 35.873 12.8181 35.5287C12.8181 35.1845 12.8708 34.8708 12.9763 34.5876C13.0873 34.3045 13.2373 34.063 13.426 33.8631C13.6204 33.6632 13.848 33.5077 14.109 33.3967C14.3755 33.2857 14.6642 33.2301 14.9751 33.2301C15.2916 33.2301 15.5803 33.2857 15.8412 33.3967C16.1077 33.5077 16.3354 33.6632 16.5242 33.8631C16.7129 34.063 16.8601 34.3045 16.9656 34.5876C17.0711 34.8708 17.1238 35.1845 17.1238 35.5287ZM15.8579 35.5287C15.8579 35.1456 15.7802 34.8458 15.6247 34.6293C15.4748 34.4072 15.2583 34.2962 14.9751 34.2962C14.6919 34.2962 14.4726 34.4072 14.3172 34.6293C14.1617 34.8458 14.084 35.1456 14.084 35.5287C14.084 35.9118 14.1617 36.2172 14.3172 36.4449C14.4726 36.667 14.6919 36.778 14.9751 36.778C15.2583 36.778 15.4748 36.667 15.6247 36.4449C15.7802 36.2172 15.8579 35.9118 15.8579 35.5287Z" fill="#440F83"/>
<path d="M19.834 37.8107C19.4731 37.8052 19.1789 37.7663 18.9512 37.6941C18.7291 37.6219 18.5515 37.522 18.4182 37.3943C18.2905 37.261 18.2017 37.1028 18.1517 36.9196C18.1073 36.7308 18.0851 36.5198 18.0851 36.2866V31.4645L19.326 31.2646V36.0368C19.326 36.1478 19.3343 36.2478 19.351 36.3366C19.3676 36.4254 19.3982 36.5004 19.4426 36.5615C19.4926 36.6225 19.562 36.6725 19.6508 36.7114C19.7396 36.7502 19.859 36.7752 20.0089 36.7863L19.834 37.8107Z" fill="#440F83"/>
<path d="M22.4692 37.8107C22.1083 37.8052 21.814 37.7663 21.5863 37.6941C21.3643 37.6219 21.1866 37.522 21.0533 37.3943C20.9256 37.261 20.8368 37.1028 20.7868 36.9196C20.7424 36.7308 20.7202 36.5198 20.7202 36.2866V31.4645L21.9611 31.2646V36.0368C21.9611 36.1478 21.9695 36.2478 21.9861 36.3366C22.0028 36.4254 22.0333 36.5004 22.0777 36.5615C22.1277 36.6225 22.1971 36.6725 22.2859 36.7114C22.3748 36.7502 22.4941 36.7752 22.644 36.7863L22.4692 37.8107Z" fill="#440F83"/>
<path d="M23.1471 35.5704C23.1471 35.1817 23.2054 34.843 23.322 34.5543C23.4442 34.2601 23.6024 34.0158 23.7967 33.8214C23.9911 33.6271 24.2132 33.48 24.463 33.38C24.7184 33.2801 24.9794 33.2301 25.2459 33.2301C25.8677 33.2301 26.3591 33.4217 26.72 33.8048C27.0809 34.1823 27.2613 34.7403 27.2613 35.4788C27.2613 35.551 27.2585 35.6315 27.253 35.7203C27.2474 35.8036 27.2419 35.8785 27.2363 35.9452H24.4214C24.4491 36.2006 24.5685 36.4032 24.7795 36.5531C24.9905 36.703 25.2736 36.778 25.629 36.778C25.8566 36.778 26.0787 36.7586 26.2952 36.7197C26.5173 36.6753 26.6978 36.6225 26.8366 36.5615L27.0031 37.5692C26.9365 37.6025 26.8477 37.6358 26.7366 37.6691C26.6256 37.7024 26.5007 37.7302 26.3619 37.7524C26.2286 37.7802 26.0842 37.8024 25.9288 37.819C25.7733 37.8357 25.6179 37.844 25.4624 37.844C25.0682 37.844 24.724 37.7857 24.4297 37.6691C24.141 37.5525 23.8995 37.3943 23.7051 37.1944C23.5163 36.989 23.3748 36.7475 23.2804 36.4698C23.1915 36.1922 23.1471 35.8924 23.1471 35.5704ZM26.062 35.0957C26.0565 34.9902 26.0371 34.8875 26.0037 34.7875C25.976 34.6876 25.9288 34.5988 25.8622 34.521C25.8011 34.4433 25.7206 34.3794 25.6206 34.3295C25.5263 34.2795 25.4069 34.2545 25.2625 34.2545C25.1237 34.2545 25.0043 34.2795 24.9044 34.3295C24.8045 34.3739 24.7212 34.435 24.6546 34.5127C24.5879 34.5904 24.5352 34.682 24.4963 34.7875C24.463 34.8875 24.438 34.9902 24.4214 35.0957H26.062Z" fill="#440F83"/>
<path d="M28.2189 33.4966C28.4299 33.4356 28.702 33.38 29.0351 33.3301C29.3682 33.2745 29.718 33.2468 30.0845 33.2468C30.4565 33.2468 30.7646 33.2968 31.0089 33.3967C31.2588 33.4911 31.4559 33.6271 31.6002 33.8048C31.7446 33.9825 31.8473 34.1934 31.9084 34.4377C31.9695 34.682 32 34.9541 32 35.2539V37.7274H30.7591V35.4038C30.7591 35.0041 30.7063 34.7209 30.6008 34.5543C30.4954 34.3878 30.2982 34.3045 30.0095 34.3045C29.9207 34.3045 29.8263 34.31 29.7264 34.3211C29.6264 34.3267 29.5376 34.335 29.4599 34.3461V37.7274H28.2189V33.4966Z" fill="#440F83"/>
</g>
<defs>
<clipPath id="clip0_295_226839">
<rect width="40" height="45.5469" fill="white" transform="translate(0 0.21875)"/>
</clipPath>
</defs>
</svg>
