<svg width="26" height="47" viewBox="0 0 26 47" fill="none" xmlns="http://www.w3.org/2000/svg">
<path d="M6.19922 46.8581V43.9185H7.41295C7.63358 43.9185 7.82411 43.9612 7.98432 44.0466C8.14465 44.1321 8.26827 44.2512 8.35517 44.4042C8.44196 44.5571 8.48541 44.7343 8.48541 44.9358C8.48541 45.1389 8.44114 45.3162 8.35238 45.4678C8.26362 45.6193 8.13745 45.7368 7.97387 45.8202C7.81029 45.9035 7.61603 45.9452 7.39111 45.9452H6.64245V45.386H7.26017C7.36683 45.386 7.45629 45.3673 7.52867 45.33C7.60093 45.2927 7.65588 45.2402 7.69329 45.1725C7.7307 45.1049 7.74941 45.026 7.74941 44.9358C7.74941 44.8449 7.7307 44.7663 7.69329 44.6999C7.65588 44.6334 7.60093 44.5821 7.52832 44.5459C7.45582 44.5096 7.36601 44.4915 7.25901 44.4915H6.90885V46.8581H6.19922Z" fill="#4B0888"/>
<path d="M10.3144 46.8581H9.55078L10.543 43.9185H11.4891L12.4813 46.8581H11.7177L11.0275 44.6591H11.0045L10.3144 46.8581ZM10.2135 45.7006H11.8096V46.2414H10.2135V45.7006Z" fill="#4B0888"/>
<path d="M15.2152 44.801C15.2056 44.6953 15.1631 44.613 15.0877 44.5541C15.0123 44.4952 14.9052 44.4657 14.7663 44.4657C14.6744 44.4657 14.5979 44.4777 14.5367 44.5019C14.4756 44.526 14.4297 44.5588 14.3989 44.6003C14.3682 44.6418 14.3524 44.6892 14.3517 44.7424C14.3502 44.7865 14.3592 44.8253 14.3786 44.8591C14.398 44.8929 14.4267 44.9225 14.4645 44.9478C14.5024 44.9732 14.5482 44.9955 14.6017 45.0147C14.6553 45.034 14.7155 45.0507 14.7823 45.0651L15.035 45.1225C15.1804 45.1541 15.3088 45.196 15.4203 45.2483C15.5318 45.3005 15.6256 45.3631 15.702 45.4361C15.7782 45.5091 15.8359 45.593 15.8752 45.6878C15.9145 45.7825 15.9344 45.8884 15.9353 46.0056C15.9344 46.192 15.8875 46.3516 15.7944 46.4844C15.7013 46.6172 15.5679 46.7191 15.3942 46.7901C15.2205 46.8612 15.0116 46.8966 14.7674 46.8966C14.5209 46.8966 14.3063 46.8596 14.1237 46.7856C13.9409 46.7115 13.7989 46.5993 13.6976 46.4491C13.5963 46.2989 13.544 46.1093 13.541 45.8804H14.2208C14.2265 45.9745 14.252 46.0533 14.2973 46.1168C14.3425 46.1803 14.4046 46.2281 14.4834 46.2603C14.5621 46.2926 14.6537 46.3087 14.7582 46.3087C14.8535 46.3087 14.9349 46.2958 15.0024 46.2701C15.0701 46.2443 15.122 46.2085 15.1584 46.1627C15.1947 46.1169 15.2133 46.0641 15.2141 46.0044C15.2133 45.9489 15.1961 45.9014 15.1627 45.862C15.1292 45.8226 15.0778 45.7881 15.0088 45.7587C14.9397 45.7292 14.8512 45.702 14.7432 45.6771L14.4366 45.606C14.1826 45.5476 13.9822 45.4531 13.8355 45.3226C13.6889 45.1921 13.6161 45.0151 13.6168 44.7918C13.6161 44.6096 13.665 44.4501 13.7636 44.3134C13.8623 44.1766 13.9985 44.07 14.1725 43.9936C14.3463 43.9171 14.545 43.8789 14.7686 43.8789C14.9963 43.8789 15.1941 43.9174 15.3621 43.9945C15.5302 44.0715 15.6606 44.1793 15.7533 44.3178C15.846 44.4564 15.8933 44.6174 15.8951 44.801H15.2152Z" fill="#4B0888"/>
<path d="M19.0043 44.801C18.9948 44.6953 18.9523 44.613 18.8769 44.5541C18.8015 44.4952 18.6943 44.4657 18.5553 44.4657C18.4634 44.4657 18.387 44.4777 18.3259 44.5019C18.2646 44.526 18.2187 44.5588 18.1881 44.6003C18.1573 44.6418 18.1416 44.6892 18.1408 44.7424C18.1393 44.7865 18.1482 44.8253 18.1676 44.8591C18.187 44.8929 18.2157 44.9225 18.2536 44.9478C18.2915 44.9732 18.3372 44.9955 18.3908 45.0147C18.4445 45.034 18.5047 45.0507 18.5715 45.0651L18.824 45.1225C18.9695 45.1541 19.098 45.196 19.2094 45.2483C19.3209 45.3005 19.4148 45.3631 19.491 45.4361C19.5674 45.5091 19.6251 45.593 19.6644 45.6878C19.7035 45.7825 19.7235 45.8884 19.7243 46.0056C19.7235 46.192 19.6766 46.3516 19.5835 46.4844C19.4903 46.6172 19.357 46.7191 19.1833 46.7901C19.0096 46.8612 18.8007 46.8966 18.5565 46.8966C18.3099 46.8966 18.0954 46.8596 17.9127 46.7856C17.7301 46.7115 17.588 46.5993 17.4867 46.4491C17.3854 46.2989 17.3332 46.1093 17.3301 45.8804H18.0098C18.0157 45.9745 18.0411 46.0533 18.0864 46.1168C18.1317 46.1803 18.1936 46.2281 18.2724 46.2603C18.3512 46.2926 18.4429 46.3087 18.5473 46.3087C18.6426 46.3087 18.724 46.2958 18.7916 46.2701C18.8591 46.2443 18.9112 46.2085 18.9475 46.1627C18.9839 46.1169 19.0024 46.0641 19.0032 46.0044C19.0024 45.9489 18.9853 45.9014 18.9518 45.862C18.9183 45.8226 18.867 45.7881 18.7979 45.7587C18.7289 45.7292 18.6404 45.702 18.5323 45.6771L18.2258 45.606C17.9716 45.5476 17.7712 45.4531 17.6246 45.3226C17.4781 45.1921 17.4051 45.0151 17.4059 44.7918C17.4051 44.6096 17.454 44.4501 17.5527 44.3134C17.6514 44.1766 17.7877 44.07 17.9615 43.9936C18.1354 43.9171 18.3341 43.8789 18.5576 43.8789C18.7853 43.8789 18.9833 43.9174 19.1513 43.9945C19.3193 44.0715 19.4497 44.1793 19.5425 44.3178C19.6352 44.4564 19.6824 44.6174 19.6841 44.801H19.0043Z" fill="#4B0888"/>
<path fill-rule="evenodd" clip-rule="evenodd" d="M18.8207 0H6.68311C5.38678 0 4.33008 1.0746 4.33008 2.39518V25.8625V29.2509C4.33008 30.0139 4.93637 30.6324 5.68702 30.6324C6.43768 30.6327 7.04689 30.0139 7.04689 29.2506V25.831V3.62973C7.04689 3.15133 7.43377 2.76358 7.91304 2.76358C10.0351 2.76358 15.4716 2.76358 17.5936 2.76329C17.8217 2.76329 18.044 2.85481 18.2057 3.01707C18.3674 3.17962 18.4598 3.39991 18.4598 3.62944C18.4598 5.60973 18.4598 10.4838 18.4598 12.9263C18.4598 13.3092 18.3068 13.6761 18.0354 13.947C17.7669 14.2178 17.4002 14.3699 17.0162 14.3699H12.0648C10.7655 14.3699 9.70884 15.4442 9.70884 16.7648V23.7765C9.70884 24.5396 10.318 25.158 11.0687 25.158C11.8193 25.1583 12.4285 24.5396 12.4257 23.7765V17.9996C12.4257 17.5212 12.8154 17.1335 13.2918 17.1335C15.0414 17.1335 18.8207 17.1332 18.8207 17.1332C19.4703 17.1332 20.0592 16.8647 20.4865 16.4311C20.9138 15.9974 21.1766 15.3986 21.1766 14.7383V2.39518C21.1766 1.07431 20.1199 0 18.8207 0ZM11.0889 11.9944C11.4354 11.9944 11.776 11.8535 12.0214 11.6084C12.2669 11.3632 12.4054 11.0243 12.4054 10.6781C12.4054 10.3317 12.2669 9.99185 12.0214 9.74644C11.776 9.50161 11.4354 9.36187 11.0889 9.36187C10.7424 9.36101 10.4046 9.50161 10.1592 9.74644C9.9138 9.99185 9.77235 10.3314 9.77523 10.6781C9.77523 11.0243 9.9138 11.3632 10.1592 11.6084C10.4046 11.8535 10.7424 11.9944 11.0889 11.9944ZM15.9999 7.85074C16.2453 7.60562 16.3839 7.26696 16.3839 6.92021C16.3839 6.57375 16.2453 6.23451 15.9999 5.98939C15.7545 5.74514 15.4138 5.60425 15.0674 5.60425C14.7209 5.60425 14.3831 5.74428 14.1377 5.98939C13.8923 6.23451 13.7508 6.57346 13.7508 6.92079C13.7508 7.26696 13.8923 7.60562 14.1377 7.85074C14.3831 8.09586 14.7209 8.23675 15.0674 8.23675C15.4138 8.23675 15.7545 8.09586 15.9999 7.85074ZM11.0773 8.23675C11.4238 8.23675 11.7616 8.09586 12.007 7.85074C12.2524 7.60591 12.3939 7.26696 12.3939 6.92079C12.3939 6.57404 12.2524 6.23451 12.007 5.98939C11.7616 5.74428 11.4238 5.60425 11.0773 5.60425C10.7309 5.60425 10.3902 5.74427 10.1448 5.98968C9.90228 6.2348 9.76082 6.57404 9.76082 6.92021C9.76082 7.26696 9.90228 7.60591 10.1448 7.85074C10.3902 8.09586 10.7309 8.23675 11.0773 8.23675Z" fill="#4B0888"/>
<path d="M3.04053 38.5342C3.04053 38.1192 2.9473 37.7883 2.76084 37.5417C2.57438 37.2891 2.29769 37.1628 1.93078 37.1628C1.81048 37.1628 1.69921 37.1688 1.59696 37.1808C1.4947 37.1868 1.41049 37.1959 1.34433 37.2079V39.6349C1.42854 39.689 1.53681 39.7342 1.66913 39.7702C1.80748 39.8063 1.94582 39.8244 2.08416 39.8244C2.72174 39.8244 3.04053 39.3943 3.04053 38.5342ZM4.41193 38.4981C4.41193 38.865 4.36682 39.1988 4.27659 39.4996C4.18637 39.8003 4.05404 40.059 3.87961 40.2755C3.70518 40.492 3.48864 40.6604 3.23 40.7807C2.97136 40.901 2.67362 40.9612 2.33679 40.9612C2.15033 40.9612 1.97589 40.9431 1.81349 40.9071C1.65109 40.871 1.4947 40.8198 1.34433 40.7537V42.5401H0V36.2876C0.120298 36.2515 0.258641 36.2184 0.415028 36.1884C0.571415 36.1523 0.733817 36.1222 0.902234 36.0981C1.07667 36.0741 1.2511 36.056 1.42553 36.044C1.60598 36.026 1.7774 36.0169 1.9398 36.0169C2.33077 36.0169 2.67964 36.0771 2.9864 36.1974C3.29316 36.3117 3.5518 36.4771 3.76232 36.6936C3.97284 36.9041 4.13223 37.1628 4.2405 37.4695C4.35479 37.7763 4.41193 38.1192 4.41193 38.4981Z" fill="#4B0888"/>
<path d="M9.88412 38.4891C9.88412 38.862 9.82999 39.2048 9.72172 39.5176C9.61345 39.8244 9.45706 40.089 9.25256 40.3116C9.04805 40.5281 8.80144 40.6965 8.51272 40.8168C8.23002 40.9371 7.91123 40.9973 7.55635 40.9973C7.20749 40.9973 6.8887 40.9371 6.59999 40.8168C6.31729 40.6965 6.07368 40.5281 5.86918 40.3116C5.66467 40.089 5.50528 39.8244 5.39099 39.5176C5.27671 39.2048 5.21957 38.862 5.21957 38.4891C5.21957 38.1161 5.27671 37.7763 5.39099 37.4695C5.51129 37.1628 5.67369 36.9011 5.8782 36.6846C6.08872 36.4681 6.33533 36.2996 6.61803 36.1793C6.90675 36.0591 7.21952 35.9989 7.55635 35.9989C7.8992 35.9989 8.21198 36.0591 8.49468 36.1793C8.78339 36.2996 9.03 36.4681 9.23451 36.6846C9.43902 36.9011 9.59841 37.1628 9.7127 37.4695C9.82698 37.7763 9.88412 38.1161 9.88412 38.4891ZM8.51272 38.4891C8.51272 38.074 8.42852 37.7492 8.2601 37.5147C8.0977 37.2741 7.86311 37.1538 7.55635 37.1538C7.2496 37.1538 7.01201 37.2741 6.84359 37.5147C6.67517 37.7492 6.59096 38.074 6.59096 38.4891C6.59096 38.9041 6.67517 39.2349 6.84359 39.4815C7.01201 39.7221 7.2496 39.8424 7.55635 39.8424C7.86311 39.8424 8.0977 39.7221 8.2601 39.4815C8.42852 39.2349 8.51272 38.9041 8.51272 38.4891Z" fill="#4B0888"/>
<path d="M12.8202 40.9612C12.4292 40.9552 12.1104 40.9131 11.8638 40.8349C11.6232 40.7567 11.4307 40.6484 11.2864 40.5101C11.148 40.3657 11.0518 40.1943 10.9977 39.9958C10.9496 39.7913 10.9255 39.5627 10.9255 39.3101V34.0862L12.2698 33.8696V39.0394C12.2698 39.1597 12.2788 39.268 12.2969 39.3642C12.3149 39.4605 12.348 39.5417 12.3961 39.6078C12.4503 39.674 12.5255 39.7281 12.6217 39.7702C12.7179 39.8123 12.8473 39.8394 13.0097 39.8514L12.8202 40.9612Z" fill="#4B0888"/>
<path d="M15.6749 40.9612C15.2839 40.9552 14.9652 40.9131 14.7185 40.8349C14.4779 40.7567 14.2855 40.6484 14.1411 40.5101C14.0028 40.3657 13.9065 40.1943 13.8524 39.9958C13.8043 39.7913 13.7802 39.5627 13.7802 39.3101V34.0862L15.1246 33.8696V39.0394C15.1246 39.1597 15.1336 39.268 15.1516 39.3642C15.1697 39.4605 15.2027 39.5417 15.2509 39.6078C15.305 39.674 15.3802 39.7281 15.4764 39.7702C15.5727 39.8123 15.702 39.8394 15.8644 39.8514L15.6749 40.9612Z" fill="#4B0888"/>
<path d="M16.4094 38.5342C16.4094 38.1131 16.4725 37.7462 16.5989 37.4335C16.7312 37.1147 16.9026 36.85 17.1131 36.6395C17.3237 36.429 17.5642 36.2696 17.8349 36.1613C18.1116 36.053 18.3943 35.9989 18.683 35.9989C19.3567 35.9989 19.889 36.2064 20.28 36.6214C20.6709 37.0305 20.8664 37.635 20.8664 38.4349C20.8664 38.5131 20.8634 38.6003 20.8574 38.6966C20.8514 38.7868 20.8454 38.868 20.8394 38.9402H17.7898C17.8199 39.2169 17.9492 39.4364 18.1778 39.5988C18.4063 39.7612 18.7131 39.8424 19.098 39.8424C19.3447 39.8424 19.5853 39.8214 19.8198 39.7793C20.0604 39.7311 20.2559 39.674 20.4063 39.6078L20.5867 40.6995C20.5146 40.7356 20.4183 40.7717 20.298 40.8078C20.1777 40.8439 20.0424 40.874 19.892 40.898C19.7477 40.9281 19.5913 40.9522 19.4229 40.9702C19.2544 40.9883 19.086 40.9973 18.9176 40.9973C18.4905 40.9973 18.1176 40.9341 17.7988 40.8078C17.4861 40.6815 17.2244 40.5101 17.0139 40.2935C16.8094 40.071 16.656 39.8093 16.5537 39.5086C16.4575 39.2078 16.4094 38.883 16.4094 38.5342ZM19.5672 38.0199C19.5612 37.9056 19.5401 37.7943 19.5041 37.6861C19.474 37.5778 19.4229 37.4816 19.3507 37.3974C19.2845 37.3132 19.1973 37.244 19.089 37.1899C18.9868 37.1357 18.8575 37.1087 18.7011 37.1087C18.5507 37.1087 18.4214 37.1357 18.3131 37.1899C18.2048 37.238 18.1146 37.3041 18.0424 37.3883C17.9703 37.4726 17.9131 37.5718 17.871 37.6861C17.8349 37.7943 17.8079 37.9056 17.7898 38.0199H19.5672Z" fill="#4B0888"/>
<path d="M21.9039 36.2876C22.1324 36.2215 22.4272 36.1613 22.788 36.1072C23.1489 36.047 23.5279 36.0169 23.9249 36.0169C24.3279 36.0169 24.6617 36.0711 24.9263 36.1793C25.197 36.2816 25.4105 36.429 25.5669 36.6214C25.7233 36.8139 25.8346 37.0425 25.9008 37.3071C25.9669 37.5718 26 37.8665 26 38.1913V40.871H24.6557V38.3537C24.6557 37.9207 24.5985 37.6139 24.4842 37.4335C24.37 37.253 24.1564 37.1628 23.8437 37.1628C23.7474 37.1628 23.6452 37.1688 23.5369 37.1808C23.4286 37.1868 23.3324 37.1959 23.2482 37.2079V40.871H21.9039V36.2876Z" fill="#4B0888"/>
</svg>
