<?xml version="1.0" encoding="UTF-8" standalone="no"?>
<!DOCTYPE svg PUBLIC "-//W3C//DTD SVG 1.1//EN" "http://www.w3.org/Graphics/SVG/1.1/DTD/svg11.dtd">
<svg width="100%" height="100%" viewBox="0 0 468 340" version="1.1" xmlns="http://www.w3.org/2000/svg" xmlns:xlink="http://www.w3.org/1999/xlink" xml:space="preserve" xmlns:serif="http://www.serif.com/" style="fill-rule:evenodd;clip-rule:evenodd;stroke-linejoin:round;stroke-miterlimit:2;">
    <g id="Artboard1" transform="matrix(0.934189,0,0,0.678472,0,0)">
        <rect x="0" y="0" width="500" height="500" style="fill:none;"/>
        <g id="OBJECTS" transform="matrix(1.07045,0,0,1.4739,-18.9755,-84.0645)">
            <g>
                <g transform="matrix(1,0,0,1,317.659,336.443)">
                    <path d="M0,-2.563C-0.539,-4.326 -1.775,-5.977 -3.531,-6.542C-5.286,-7.107 -7.513,-6.252 -8.06,-4.49C-9.675,-5.839 -12.15,-4.768 -13.447,-3.112C-15.546,-0.434 -13.924,3.952 -13.574,4.237C-13.195,4.544 -12.17,4.49 -12.17,4.49L3.535,4.403C3.535,4.403 6.416,4.193 7.746,3.663C10.421,2.596 12.241,-2.008 10.519,-4.317C9.345,-5.892 7.029,-6.226 5.158,-5.628C3.288,-5.03 1.473,-3.861 0,-2.563" style="fill:rgb(108,221,108);fill-rule:nonzero;"/>
                </g>
                <g transform="matrix(1,0,0,1,307.874,338.658)">
                    <path d="M0,-6.799C-0.095,-6.799 -0.193,-6.794 -0.294,-6.783C-1.333,-6.673 -2.495,-5.976 -3.254,-5.007C-5.096,-2.657 -3.72,1.266 -3.419,1.661C-3.349,1.711 -2.831,1.781 -2.412,1.757L13.317,1.669C13.31,1.668 16.099,1.46 17.339,0.965C18.586,0.469 19.749,-1.017 20.233,-2.731C20.628,-4.126 20.503,-5.399 19.889,-6.223C18.791,-7.697 16.636,-7.84 15.101,-7.349C13.469,-6.827 11.703,-5.776 10.128,-4.39C9.996,-4.272 9.814,-4.232 9.645,-4.279C9.474,-4.328 9.341,-4.458 9.289,-4.627C8.735,-6.439 7.541,-7.799 6.096,-8.264C5.281,-8.527 4.317,-8.438 3.524,-8.024C2.873,-7.686 2.41,-7.164 2.221,-6.552C2.169,-6.387 2.039,-6.258 1.873,-6.209C1.708,-6.16 1.527,-6.196 1.394,-6.308C1.003,-6.634 0.535,-6.799 0,-6.799M-2.609,2.799C-3.007,2.799 -3.717,2.747 -4.116,2.423C-4.732,1.923 -6.296,-2.807 -4.07,-5.647C-3.133,-6.844 -1.728,-7.674 -0.402,-7.814C0.29,-7.893 0.935,-7.771 1.497,-7.479C1.834,-8.084 2.368,-8.593 3.046,-8.945C4.079,-9.482 5.338,-9.598 6.414,-9.251C7.976,-8.749 9.285,-7.43 10.02,-5.656C11.55,-6.895 13.22,-7.837 14.785,-8.337C16.661,-8.937 19.318,-8.723 20.72,-6.843C21.527,-5.759 21.715,-4.158 21.232,-2.449C20.655,-0.409 19.278,1.309 17.724,1.929C16.335,2.483 13.479,2.696 13.357,2.705L-2.382,2.793C-2.434,2.796 -2.512,2.799 -2.609,2.799" style="fill:rgb(80,170,80);fill-rule:nonzero;"/>
                </g>
                <g transform="matrix(-0.996296,0.0859856,0.0859856,0.996296,301.524,336.124)">
                    <path d="M0.135,-2.862C0.657,-2.029 0.931,-1.1 0.91,-0.114C0.898,0.381 0.123,0.454 0.135,-0.047C0.154,-0.898 -0.047,-1.691 -0.501,-2.412C-0.766,-2.836 -0.132,-3.286 0.135,-2.862" style="fill:rgb(80,170,80);fill-rule:nonzero;"/>
                </g>
                <g transform="matrix(-0.96307,0.26925,0.26925,0.96307,299.841,336.432)">
                    <path d="M0.252,-2.691C0.725,-1.909 0.979,-1.067 1.03,-0.156C1.058,0.342 0.28,0.345 0.252,-0.154C0.209,-0.926 -0.015,-1.628 -0.415,-2.289C-0.674,-2.718 -0.007,-3.119 0.252,-2.691" style="fill:rgb(80,170,80);fill-rule:nonzero;"/>
                </g>
                <g transform="matrix(1,0,0,1,303.237,331.552)">
                    <path d="M0,0.778C0.5,0.778 0.501,0 0,0C-0.5,0 -0.501,0.778 0,0.778" style="fill:rgb(80,170,80);fill-rule:nonzero;"/>
                </g>
                <g transform="matrix(0,1,1,0,306.175,336.047)">
                    <path d="M0.043,-0.735L0.734,-0.735C1.235,-0.735 1.236,0.043 0.734,0.043L0.043,0.043C-0.457,0.043 -0.458,-0.735 0.043,-0.735" style="fill:rgb(80,170,80);fill-rule:nonzero;"/>
                </g>
                <g transform="matrix(0,1,1,0,319.139,337.084)">
                    <path d="M0.216,-0.562L0.562,-0.562C1.062,-0.562 1.063,0.216 0.562,0.216L0.216,0.216C-0.284,0.216 -0.285,-0.562 0.216,-0.562" style="fill:rgb(80,170,80);fill-rule:nonzero;"/>
                </g>
                <g transform="matrix(0.707107,0.707107,0.707107,-0.707107,317.108,336.054)">
                    <path d="M0.239,-0.2L0.484,-0.2C0.984,-0.2 0.984,0.578 0.484,0.578L0.239,0.578C-0.262,0.578 -0.263,-0.2 0.239,-0.2" style="fill:rgb(80,170,80);fill-rule:nonzero;"/>
                </g>
                <g transform="matrix(1,0,0,1,96.1174,317.146)">
                    <path d="M0,2.074L-26.329,2.074C-26.902,2.074 -27.366,1.61 -27.366,1.037C-27.366,0.464 -26.902,0 -26.329,0L0,0C0.573,0 1.037,0.464 1.037,1.037C1.037,1.61 0.573,2.074 0,2.074" style="fill:rgb(64,91,145);fill-rule:nonzero;"/>
                </g>
                <g transform="matrix(1,0,0,1,327.96,226.027)">
                    <path d="M0,1.88L-0.752,1.88C-0.752,1.258 -1.258,0.752 -1.88,0.752C-2.502,0.752 -3.008,1.258 -3.008,1.88L-3.76,1.88C-3.76,0.843 -2.916,0 -1.88,0C-0.843,0 0,0.843 0,1.88" style="fill:white;fill-rule:nonzero;"/>
                </g>
                <g transform="matrix(1,0,0,1,330.65,182.241)">
                    <path d="M0,1.88L-0.752,1.88C-0.752,1.258 -1.258,0.752 -1.88,0.752C-2.502,0.752 -3.008,1.258 -3.008,1.88L-3.76,1.88C-3.76,0.843 -2.917,0 -1.88,0C-0.843,0 0,0.843 0,1.88" style="fill:white;fill-rule:nonzero;"/>
                </g>
                <g transform="matrix(1,0,0,1,204.346,319.937)">
                    <path d="M0,14.263L29.901,14.263C28.749,9.91 27.966,3.619 27.811,0.006L1.885,0.086C2.13,4.914 1.835,9.307 0,14.263M32.697,16.337L-3.088,16.337L-2.481,14.897C-0.135,9.331 0.108,4.565 -0.25,-0.88L-0.322,-1.982L29.849,-2.074L29.857,-1.042C29.883,2.477 30.835,10.47 32.268,14.986L32.697,16.337Z" style="fill:rgb(65,91,145);fill-rule:nonzero;"/>
                </g>
                <g transform="matrix(1,0,0,1,140.58,318.256)">
                    <path d="M0,-102.368C-2.351,-102.368 -4.309,-100.53 -4.485,-98.151C-5.8,-80.4 -4.783,-48.215 -4.041,-24.715C-3.793,-16.902 -3.58,-10.155 -3.492,-5.193C-3.466,-3.751 -1.055,-1.061 0.807,-0.396C4.141,0.285 151.397,-0.219 155.225,-0.938C159.917,-1.865 160.128,-6.491 160.332,-10.966C160.379,-12.001 160.425,-13.001 160.527,-13.908C163.017,-35.884 162.277,-59.192 161.562,-81.731C161.391,-87.132 161.221,-92.461 161.101,-97.677C161.045,-100.134 159.111,-102.091 156.699,-102.135L0.075,-102.368L0,-102.368ZM50.389,1.667C23.221,1.667 1.213,1.519 0.247,1.174C-2.079,0.345 -5.118,-2.878 -5.159,-5.164C-5.247,-10.114 -5.46,-16.855 -5.706,-24.663C-6.451,-48.2 -7.469,-80.436 -6.148,-98.274C-5.907,-101.524 -3.222,-104.035 -0.013,-104.035L0.09,-104.035L156.722,-103.802C160.034,-103.746 162.691,-101.072 162.768,-97.716C162.888,-92.505 163.057,-87.181 163.228,-81.783C163.946,-59.185 164.686,-35.817 162.184,-13.719C162.085,-12.848 162.042,-11.886 161.997,-10.889C161.786,-6.253 161.523,-0.482 155.548,0.696C152.626,1.273 94.659,1.667 50.389,1.667" style="fill:rgb(65,91,145);fill-rule:nonzero;"/>
                </g>
                <g transform="matrix(1,0,0,1,292.92,306.474)">
                    <path d="M0,-86.628L-147.576,-86.822C-150.23,-86.862 -152.458,-85.042 -152.657,-82.664C-154.311,-62.912 -152.057,-21.7 -151.724,-5.113C-151.691,-3.497 -149.053,-1.073 -147.152,-0.473C-144.915,0.234 -4.671,-0.3 -1.244,-0.898C4.912,-1.973 3.864,-8.276 4.38,-12.311C7.301,-35.124 5.507,-59.921 4.926,-82.233C4.863,-84.65 2.69,-86.588 0,-86.628" style="fill:rgb(182,208,251);"/>
                </g>
                <g transform="matrix(1,0,0,1,188.441,340.285)">
                    <path d="M0,-4.291C-1.614,-4.291 -2.044,-2.941 -2.044,-2.143C-2.044,-1.347 -1.614,0 0,0L61.404,0C63.017,0 63.448,-1.35 63.448,-2.148C63.448,-2.944 63.017,-4.291 61.404,-4.291L0,-4.291ZM61.404,1.667L0,1.667C-2.437,1.667 -3.712,-0.25 -3.712,-2.143C-3.712,-4.039 -2.437,-5.958 0,-5.958L61.404,-5.958C63.841,-5.958 65.116,-4.042 65.116,-2.148C65.116,-0.253 63.841,1.667 61.404,1.667" style="fill:rgb(65,91,145);fill-rule:nonzero;"/>
                </g>
                <g transform="matrix(1,0,0,1,145.678,309.827)">
                    <path d="M0,4.286C2.758,4.286 2.762,0 0,0C-2.758,0 -2.762,4.286 0,4.286" style="fill:rgb(65,91,145);fill-rule:nonzero;"/>
                </g>
                <g transform="matrix(1,0,0,1,154.318,309.827)">
                    <path d="M0,4.286C2.758,4.286 2.762,0 0,0C-2.758,0 -2.762,4.286 0,4.286" style="fill:rgb(65,91,145);fill-rule:nonzero;"/>
                </g>
                <g transform="matrix(1,0,0,1,162.958,309.827)">
                    <path d="M0,4.286C2.758,4.286 2.762,0 0,0C-2.758,0 -2.762,4.286 0,4.286" style="fill:rgb(65,91,145);fill-rule:nonzero;"/>
                </g>
                <g transform="matrix(1,0,0,1,219.143,216.561)">
                    <path d="M0,2.01C1.294,2.01 1.296,0 0,0C-1.293,0 -1.296,2.01 0,2.01" style="fill:rgb(65,91,145);fill-rule:nonzero;"/>
                </g>
                <g transform="matrix(-1,0,0,1,371.158,311.151)">
                    <path d="M-21.158,26.728L0,26.728L-8.138,0L-13.02,0L-21.158,26.728Z" style="fill:rgb(182,208,251);fill-rule:nonzero;"/>
                </g>
                <g transform="matrix(-1,0,0,1,763.475,178.812)">
                    <rect x="369.41" y="159.067" width="24.655" height="3.054" style="fill:rgb(182,208,251);"/>
                </g>
                <g transform="matrix(-0.291207,0.95666,0.95666,0.291207,387.422,327.336)">
                    <path d="M7.837,-12.489L14.822,-12.489L8.661,7.752L2.861,3.86L7.837,-12.489Z" style="fill:rgb(65,91,145);fill-rule:nonzero;"/>
                </g>
                <g transform="matrix(1,0,0,1,375.227,317.833)">
                    <path d="M0,6.682L13.02,6.682L10.986,0L2.034,0L0,6.682Z" style="fill:rgb(65,91,145);fill-rule:nonzero;"/>
                </g>
                <g transform="matrix(1,0,0,1,401.042,337.903)">
                    <path d="M0,-28.321L5.164,-28.321L2.255,-16.838L-2.909,-16.838L0,-28.321ZM12.83,-16.838L7.666,-16.838L10.575,-28.321L15.739,-28.321L12.83,-16.838ZM23.404,-16.838L18.24,-16.838L21.149,-28.321L26.314,-28.321L23.404,-16.838ZM36.873,-28.321L36.873,-28.26L33.979,-16.838L28.815,-16.838L31.724,-28.321L36.873,-28.321ZM-0.073,2.857L4.622,2.857L4.622,-15.322L28.722,-15.322L28.722,2.857L33.417,2.857L33.417,-15.322L38.389,-15.322L38.389,-29.837L34.423,-29.837L34.423,-31.178L27.582,-31.178L27.582,-29.837L6.231,-29.837L6.231,-31.178L-0.61,-31.178L-0.61,-29.837L-4.963,-29.837L-4.963,-15.322L-0.073,-15.322L-0.073,2.857Z" style="fill:rgb(182,208,251);fill-rule:nonzero;"/>
                </g>
                <g transform="matrix(1,0,0,1,161.782,147.562)">
                    <path d="M0,11.637C-3.215,11.637 -5.82,9.029 -5.82,5.819C-5.82,2.604 -3.215,0 0,0C3.213,0 5.819,2.604 5.819,5.819C5.819,9.029 3.213,11.637 0,11.637M8.264,15.489L9.67,14.082C9.957,13.798 9.957,13.335 9.67,13.049L8.444,11.826C8.162,11.54 8.087,11.022 8.281,10.67L9.279,8.246C9.392,7.858 9.815,7.543 10.216,7.543L11.95,7.543C12.353,7.543 12.68,7.215 12.68,6.817L12.68,4.822C12.68,4.419 12.353,4.094 11.95,4.094L10.216,4.094C9.815,4.094 9.392,3.779 9.279,3.393L8.281,0.97C8.087,0.617 8.162,0.097 8.444,-0.189L9.67,-1.412C9.957,-1.698 9.957,-2.161 9.67,-2.441L8.264,-3.854C7.979,-4.138 7.515,-4.138 7.232,-3.854L6.006,-2.628C5.721,-2.344 5.202,-2.27 4.851,-2.46L2.424,-3.46C2.039,-3.574 1.724,-3.994 1.724,-4.398L1.724,-6.132C1.724,-6.532 1.397,-6.863 0.995,-6.863L-0.995,-6.863C-1.398,-6.863 -1.726,-6.532 -1.726,-6.132L-1.726,-4.398C-1.726,-3.994 -2.04,-3.574 -2.426,-3.46L-4.852,-2.46C-5.203,-2.27 -5.725,-2.344 -6.007,-2.628L-7.235,-3.852C-7.517,-4.138 -7.98,-4.138 -8.262,-3.852L-9.674,-2.441C-9.959,-2.161 -9.959,-1.698 -9.674,-1.412L-8.449,-0.189C-8.165,0.097 -8.089,0.617 -8.282,0.97L-9.281,3.393C-9.394,3.779 -9.818,4.094 -10.218,4.094L-11.954,4.094C-12.354,4.094 -12.683,4.419 -12.683,4.822L-12.683,6.817C-12.683,7.215 -12.354,7.543 -11.954,7.543L-10.218,7.543C-9.818,7.543 -9.394,7.858 -9.281,8.246L-8.282,10.67C-8.089,11.024 -8.165,11.54 -8.449,11.826L-9.674,13.049C-9.959,13.335 -9.959,13.798 -9.674,14.082L-8.262,15.489C-7.98,15.776 -7.517,15.776 -7.235,15.489L-6.007,14.266C-5.725,13.981 -5.203,13.907 -4.85,14.101L-2.426,15.099C-2.04,15.21 -1.726,15.633 -1.726,16.035L-1.726,17.772C-1.726,18.171 -1.398,18.5 -0.995,18.5L0.995,18.5C1.397,18.5 1.724,18.171 1.724,17.772L1.724,16.035C1.724,15.633 2.039,15.21 2.424,15.099L4.851,14.101C5.202,13.907 5.721,13.981 6.006,14.266L7.232,15.489C7.515,15.776 7.979,15.776 8.264,15.489" style="fill:rgb(182,208,251);fill-rule:nonzero;"/>
                </g>
                <g transform="matrix(1,0,0,1,178.98,168.531)">
                    <path d="M0,3.403C-0.94,5.16 -3.13,5.82 -4.881,4.879C-6.637,3.938 -7.297,1.752 -6.358,0C-5.417,-1.761 -3.227,-2.419 -1.474,-1.478C0.278,-0.536 0.94,1.649 0,3.403M4.521,0.019L4.166,-1.163C4.093,-1.402 3.84,-1.537 3.601,-1.466L2.576,-1.154C2.337,-1.081 2.029,-1.194 1.893,-1.405L0.86,-2.658C0.686,-2.831 0.635,-3.155 0.754,-3.375L1.26,-4.321C1.379,-4.543 1.295,-4.817 1.079,-4.935L-0.01,-5.517C-0.229,-5.637 -0.503,-5.55 -0.622,-5.332L-1.131,-4.386C-1.247,-4.167 -1.544,-4.029 -1.786,-4.079L-3.404,-4.242C-3.651,-4.24 -3.916,-4.431 -3.986,-4.671L-4.298,-5.699C-4.369,-5.936 -4.622,-6.073 -4.86,-5.999L-6.042,-5.645C-6.285,-5.571 -6.415,-5.32 -6.345,-5.079L-6.032,-4.053C-5.959,-3.812 -6.073,-3.509 -6.285,-3.372L-7.539,-2.337C-7.711,-2.161 -8.036,-2.116 -8.255,-2.232L-9.202,-2.74C-9.419,-2.857 -9.696,-2.776 -9.812,-2.554L-10.397,-1.469C-10.512,-1.248 -10.432,-0.972 -10.213,-0.856L-9.265,-0.345C-9.044,-0.229 -8.907,0.066 -8.958,0.308L-9.119,1.925C-9.119,2.174 -9.31,2.44 -9.55,2.507L-10.578,2.821C-10.818,2.892 -10.954,3.147 -10.88,3.384L-10.523,4.564C-10.452,4.805 -10.198,4.938 -9.958,4.865L-8.93,4.555C-8.693,4.484 -8.388,4.599 -8.252,4.805L-7.219,6.061C-7.043,6.234 -6.995,6.558 -7.111,6.778L-7.62,7.724C-7.735,7.943 -7.653,8.216 -7.433,8.338L-6.347,8.918C-6.128,9.036 -5.853,8.953 -5.735,8.734L-5.225,7.787C-5.111,7.565 -4.812,7.43 -4.57,7.478L-2.956,7.643C-2.703,7.643 -2.442,7.834 -2.37,8.074L-2.061,9.1C-1.988,9.339 -1.733,9.476 -1.496,9.402L-0.315,9.045C-0.078,8.974 0.058,8.719 -0.01,8.483L-0.322,7.456C-0.395,7.218 -0.284,6.908 -0.076,6.775L1.18,5.742C1.353,5.565 1.679,5.517 1.898,5.633L2.843,6.141C3.064,6.262 3.342,6.177 3.457,5.957L4.04,4.869C4.159,4.652 4.073,4.375 3.853,4.257L2.906,3.748C2.686,3.628 2.548,3.337 2.6,3.096L2.765,1.474C2.762,1.228 2.956,0.963 3.193,0.892L4.222,0.582C4.458,0.509 4.594,0.258 4.521,0.019" style="fill:rgb(182,208,251);fill-rule:nonzero;"/>
                </g>
                <g transform="matrix(1,0,0,1,242.389,189.256)">
                    <path d="M0,2.074L-32.6,2.074C-33.172,2.074 -33.637,1.61 -33.637,1.037C-33.637,0.464 -33.172,0 -32.6,0L0,0C0.573,0 1.037,0.464 1.037,1.037C1.037,1.61 0.573,2.074 0,2.074" style="fill:rgb(64,91,145);fill-rule:nonzero;"/>
                </g>
                <g transform="matrix(1,0,0,1,176.021,204.065)">
                    <path d="M0,2.074L-52.658,2.074C-53.23,2.074 -53.695,1.61 -53.695,1.037C-53.695,0.464 -53.23,0 -52.658,0L0,0C0.573,0 1.037,0.464 1.037,1.037C1.037,1.61 0.573,2.074 0,2.074" style="fill:rgb(64,91,145);fill-rule:nonzero;"/>
                </g>
                <g transform="matrix(1,0,0,1,428.498,232.104)">
                    <path d="M0,2.074L-52.657,2.074C-53.23,2.074 -53.694,1.61 -53.694,1.037C-53.694,0.464 -53.23,0 -52.657,0L0,0C0.573,0 1.037,0.464 1.037,1.037C1.037,1.61 0.573,2.074 0,2.074" style="fill:rgb(64,91,145);fill-rule:nonzero;"/>
                </g>
                <g transform="matrix(1,0,0,1,449.199,340.914)">
                    <path d="M0,2.074L-398.398,2.074C-398.971,2.074 -399.435,1.61 -399.435,1.037C-399.435,0.464 -398.971,0 -398.398,0L0,0C0.573,0 1.037,0.464 1.037,1.037C1.037,1.61 0.573,2.074 0,2.074" style="fill:rgb(64,91,145);fill-rule:nonzero;"/>
                </g>
                <g transform="matrix(1,0,0,1,303.062,188.291)">
                    <path d="M0,4.258C-3.241,4.258 -5.879,1.621 -5.88,-1.622C-5.879,-4.864 -3.24,-7.503 0.002,-7.503C3.245,-7.503 5.882,-4.865 5.882,-1.622C5.882,1.621 3.244,4.258 0,4.258M-0.001,-9.987C-2.234,-9.987 -4.334,-9.117 -5.913,-7.537C-8.607,-4.843 -9.142,-0.67 -7.215,2.611L-7.078,2.843L-15.546,11.311C-15.557,11.323 -15.957,11.71 -15.963,12.274C-15.967,12.699 -15.752,13.132 -15.324,13.56C-14.869,14.014 -14.392,14.245 -13.908,14.245C-13.327,14.245 -12.915,13.908 -12.911,13.906L-4.465,5.455L-4.231,5.593C-2.953,6.344 -1.489,6.74 0.002,6.74C2.236,6.74 4.335,5.871 5.915,4.293C9.175,1.03 9.175,-4.275 5.915,-7.537C4.335,-9.117 2.234,-9.987 -0.001,-9.987" style="fill:rgb(182,208,251);fill-rule:nonzero;"/>
                </g>
                <g transform="matrix(1,0,0,1,0,-125.766)">
                    <rect x="299.962" y="312.108" width="6.057" height="1.55" style="fill:rgb(182,208,251);"/>
                </g>
                <g transform="matrix(1,0,0,1,147.748,259.12)">
                    <path d="M0,81.947C-0.573,81.947 -1.037,81.483 -1.037,80.91L-1.037,1.037C-1.037,0.464 -0.573,0 0,0C0.573,0 1.037,0.464 1.037,1.037L1.037,80.91C1.037,81.483 0.573,81.947 0,81.947" style="fill:rgb(64,91,145);fill-rule:nonzero;"/>
                </g>
                <g transform="matrix(1,0,0,1,166.31,259.12)">
                    <path d="M0,81.947C-0.573,81.947 -1.037,81.483 -1.037,80.91L-1.037,1.037C-1.037,0.464 -0.573,0 0,0C0.573,0 1.037,0.464 1.037,1.037L1.037,80.91C1.037,81.483 0.573,81.947 0,81.947" style="fill:rgb(64,91,145);fill-rule:nonzero;"/>
                </g>
                <g transform="matrix(1,0,0,1,166.31,264.579)">
                    <path d="M0,2.074L-18.562,2.074C-19.134,2.074 -19.599,1.61 -19.599,1.037C-19.599,0.464 -19.134,0 -18.562,0L0,0C0.573,0 1.037,0.464 1.037,1.037C1.037,1.61 0.573,2.074 0,2.074" style="fill:rgb(64,91,145);fill-rule:nonzero;"/>
                </g>
                <g transform="matrix(1,0,0,1,166.31,273.704)">
                    <path d="M0,2.074L-18.562,2.074C-19.134,2.074 -19.599,1.61 -19.599,1.037C-19.599,0.464 -19.134,0 -18.562,0L0,0C0.573,0 1.037,0.464 1.037,1.037C1.037,1.61 0.573,2.074 0,2.074" style="fill:rgb(64,91,145);fill-rule:nonzero;"/>
                </g>
                <g transform="matrix(1,0,0,1,166.31,282.829)">
                    <path d="M0,2.074L-18.562,2.074C-19.134,2.074 -19.599,1.61 -19.599,1.037C-19.599,0.464 -19.134,0 -18.562,0L0,0C0.573,0 1.037,0.464 1.037,1.037C1.037,1.61 0.573,2.074 0,2.074" style="fill:rgb(64,91,145);fill-rule:nonzero;"/>
                </g>
                <g transform="matrix(1,0,0,1,166.31,291.954)">
                    <path d="M0,2.074L-18.562,2.074C-19.134,2.074 -19.599,1.61 -19.599,1.037C-19.599,0.464 -19.134,0 -18.562,0L0,0C0.573,0 1.037,0.464 1.037,1.037C1.037,1.61 0.573,2.074 0,2.074" style="fill:rgb(64,91,145);fill-rule:nonzero;"/>
                </g>
                <g transform="matrix(1,0,0,1,166.31,301.079)">
                    <path d="M0,2.074L-18.562,2.074C-19.134,2.074 -19.599,1.61 -19.599,1.037C-19.599,0.464 -19.134,0 -18.562,0L0,0C0.573,0 1.037,0.464 1.037,1.037C1.037,1.61 0.573,2.074 0,2.074" style="fill:rgb(64,91,145);fill-rule:nonzero;"/>
                </g>
                <g transform="matrix(1,0,0,1,166.31,310.204)">
                    <path d="M0,2.074L-18.562,2.074C-19.134,2.074 -19.599,1.61 -19.599,1.037C-19.599,0.464 -19.134,0 -18.562,0L0,0C0.573,0 1.037,0.464 1.037,1.037C1.037,1.61 0.573,2.074 0,2.074" style="fill:rgb(64,91,145);fill-rule:nonzero;"/>
                </g>
                <g transform="matrix(1,0,0,1,166.31,319.329)">
                    <path d="M0,2.074L-18.562,2.074C-19.134,2.074 -19.599,1.61 -19.599,1.037C-19.599,0.464 -19.134,0 -18.562,0L0,0C0.573,0 1.037,0.464 1.037,1.037C1.037,1.61 0.573,2.074 0,2.074" style="fill:rgb(64,91,145);fill-rule:nonzero;"/>
                </g>
                <g transform="matrix(1,0,0,1,166.31,328.453)">
                    <path d="M0,2.074L-18.562,2.074C-19.134,2.074 -19.599,1.61 -19.599,1.037C-19.599,0.464 -19.134,0 -18.562,0L0,0C0.573,0 1.037,0.464 1.037,1.037C1.037,1.61 0.573,2.074 0,2.074" style="fill:rgb(64,91,145);fill-rule:nonzero;"/>
                </g>
                <g transform="matrix(1,0,0,1,122.469,257.92)">
                    <path d="M0,6.112C-0.573,6.112 -1.037,5.648 -1.037,5.075L-1.037,1.037C-1.037,0.464 -0.573,0 0,0C0.573,0 1.037,0.464 1.037,1.037L1.037,5.075C1.037,5.648 0.573,6.112 0,6.112" style="fill:rgb(64,91,145);fill-rule:nonzero;"/>
                </g>
                <g transform="matrix(1,0,0,1,124.488,259.939)">
                    <path d="M0,2.074L-4.037,2.074C-4.61,2.074 -5.074,1.61 -5.074,1.037C-5.074,0.464 -4.61,0 -4.037,0L0,0C0.573,0 1.037,0.464 1.037,1.037C1.037,1.61 0.573,2.074 0,2.074" style="fill:rgb(64,91,145);fill-rule:nonzero;"/>
                </g>
                <g transform="matrix(1,0,0,1,215.736,113.484)">
                    <path d="M0,6.112C-0.573,6.112 -1.037,5.648 -1.037,5.075L-1.037,1.037C-1.037,0.464 -0.573,0 0,0C0.573,0 1.037,0.464 1.037,1.037L1.037,5.075C1.037,5.648 0.573,6.112 0,6.112" style="fill:rgb(64,91,145);fill-rule:nonzero;"/>
                </g>
                <g transform="matrix(1,0,0,1,217.755,115.503)">
                    <path d="M0,2.074L-4.037,2.074C-4.61,2.074 -5.074,1.61 -5.074,1.037C-5.074,0.464 -4.61,0 -4.037,0L0,0C0.573,0 1.037,0.464 1.037,1.037C1.037,1.61 0.573,2.074 0,2.074" style="fill:rgb(64,91,145);fill-rule:nonzero;"/>
                </g>
                <g transform="matrix(1,0,0,1,248.43,325.367)">
                    <path d="M0,3.294C-0.094,3.294 -0.19,3.281 -0.285,3.255L-4.168,2.147C-4.719,1.989 -5.038,1.415 -4.88,0.864C-4.723,0.313 -4.147,0 -3.598,0.151L0.284,1.259C0.835,1.417 1.154,1.991 0.997,2.542C0.867,2.997 0.451,3.294 0,3.294" style="fill:rgb(64,91,145);fill-rule:nonzero;"/>
                </g>
                <g transform="matrix(1,0,0,1,245.934,323.979)">
                    <path d="M0,6.069C-0.094,6.069 -0.19,6.056 -0.285,6.03C-0.836,5.872 -1.155,5.298 -0.998,4.747L0.111,0.864C0.269,0.313 0.844,0 1.393,0.151C1.944,0.309 2.263,0.883 2.106,1.434L0.997,5.317C0.866,5.772 0.451,6.069 0,6.069" style="fill:rgb(64,91,145);fill-rule:nonzero;"/>
                </g>
                <g transform="matrix(1,0,0,1,228.03,203.393)">
                    <path d="M0,3.301C-0.094,3.301 -0.19,3.288 -0.285,3.26L-4.168,2.151C-4.718,1.995 -5.038,1.42 -4.88,0.87C-4.723,0.319 -4.15,0 -3.598,0.157L0.285,1.266C0.835,1.423 1.154,1.998 0.997,2.548C0.866,3.004 0.451,3.301 0,3.301" style="fill:rgb(64,91,145);fill-rule:nonzero;"/>
                </g>
                <g transform="matrix(1,0,0,1,225.535,202.006)">
                    <path d="M0,6.075C-0.094,6.075 -0.19,6.062 -0.285,6.035C-0.836,5.878 -1.155,5.303 -0.998,4.753L0.111,0.87C0.268,0.319 0.841,0 1.393,0.158C1.944,0.315 2.263,0.889 2.105,1.44L0.997,5.322C0.866,5.778 0.451,6.075 0,6.075" style="fill:rgb(64,91,145);fill-rule:nonzero;"/>
                </g>
                <g transform="matrix(0,-1,-1,0,225.31,154.067)">
                    <path d="M-14.407,-14.407C-22.364,-14.407 -28.814,-7.957 -28.814,-0C-28.814,7.957 -22.364,14.407 -14.407,14.407C-6.45,14.407 -0,7.957 -0,-0C-0,-7.957 -6.45,-14.407 -14.407,-14.407" style="fill:rgb(182,208,251);fill-rule:nonzero;"/>
                </g>
                <g transform="matrix(0,-1,-1,0,225.31,157.681)">
                    <path d="M-10.792,-10.792C-16.754,-10.792 -21.585,-5.96 -21.585,0.001C-21.585,5.961 -16.754,10.792 -10.792,10.792C-4.831,10.792 0.001,5.961 0.001,0.001C0.001,-5.96 -4.831,-10.792 -10.792,-10.792" style="fill:white;fill-rule:nonzero;"/>
                </g>
                <g transform="matrix(1,0,0,1,225.31,178.849)">
                    <path d="M0,-20.75C-5.721,-20.75 -10.375,-16.096 -10.375,-10.375C-10.375,-4.654 -5.721,0 0,0C5.721,0 10.375,-4.654 10.375,-10.375C10.375,-16.096 5.721,-20.75 0,-20.75M0,0.835C-6.181,0.835 -11.21,-4.194 -11.21,-10.375C-11.21,-16.556 -6.181,-21.585 0,-21.585C6.181,-21.585 11.21,-16.556 11.21,-10.375C11.21,-4.194 6.181,0.835 0,0.835" style="fill:rgb(64,91,145);fill-rule:nonzero;"/>
                </g>
                <g transform="matrix(1,0,0,1,225.31,162.561)">
                    <path d="M0,6.33C-0.231,6.33 -0.418,6.143 -0.418,5.912L-0.418,0.418C-0.418,0.187 -0.231,0 0,0C0.231,0 0.418,0.187 0.418,0.418L0.418,5.912C0.418,6.143 0.231,6.33 0,6.33" style="fill:rgb(64,91,145);fill-rule:nonzero;"/>
                </g>
                <g transform="matrix(1,0,0,1,231.748,168.056)">
                    <path d="M0,0.835L-6.438,0.835C-6.669,0.835 -6.856,0.648 -6.856,0.417C-6.856,0.187 -6.669,0 -6.438,0L0,0C0.231,0 0.418,0.187 0.418,0.417C0.418,0.648 0.231,0.835 0,0.835" style="fill:rgb(64,91,145);fill-rule:nonzero;"/>
                </g>
                <g transform="matrix(0,-1,-1,0,225.31,158.474)">
                    <path d="M-0.426,-0.426C-0.661,-0.426 -0.852,-0.235 -0.852,0C-0.852,0.236 -0.661,0.426 -0.426,0.426C-0.191,0.426 0,0.236 0,0C0,-0.235 -0.191,-0.426 -0.426,-0.426" style="fill:rgb(64,91,145);fill-rule:nonzero;"/>
                </g>
                <g transform="matrix(0.707107,-0.707107,-0.707107,-0.707107,232.506,161.704)">
                    <path d="M-0.302,-0.125C-0.536,-0.125 -0.727,0.066 -0.728,0.302C-0.728,0.536 -0.537,0.727 -0.302,0.728C-0.066,0.727 0.125,0.536 0.125,0.302C0.124,0.066 -0.067,-0.125 -0.302,-0.125" style="fill:rgb(64,91,145);fill-rule:nonzero;"/>
                </g>
                <g transform="matrix(1,0,0,1,234.884,168.048)">
                    <path d="M0,0.852C-0.235,0.852 -0.426,0.661 -0.426,0.426C-0.426,0.19 -0.235,0 0,0C0.235,0 0.426,0.19 0.426,0.426C0.426,0.661 0.235,0.852 0,0.852" style="fill:rgb(64,91,145);fill-rule:nonzero;"/>
                </g>
                <g transform="matrix(0.707107,0.707107,0.707107,-0.707107,231.654,175.244)">
                    <path d="M0.302,-0.125C0.067,-0.125 -0.124,0.066 -0.125,0.302C-0.125,0.536 0.066,0.727 0.302,0.728C0.537,0.727 0.728,0.536 0.728,0.302C0.727,0.066 0.536,-0.125 0.302,-0.125" style="fill:rgb(64,91,145);fill-rule:nonzero;"/>
                </g>
                <g transform="matrix(0,1,1,0,225.31,177.622)">
                    <path d="M0.426,-0.426C0.191,-0.426 0,-0.235 0,0C0,0.236 0.191,0.426 0.426,0.426C0.661,0.426 0.852,0.236 0.852,0C0.852,-0.235 0.661,-0.426 0.426,-0.426" style="fill:rgb(64,91,145);fill-rule:nonzero;"/>
                </g>
                <g transform="matrix(-0.707107,0.707107,0.707107,0.707107,218.967,175.244)">
                    <path d="M0.302,-0.728C0.067,-0.728 -0.124,-0.537 -0.125,-0.302C-0.125,-0.067 0.066,0.124 0.302,0.125C0.537,0.124 0.728,-0.067 0.728,-0.302C0.727,-0.537 0.536,-0.728 0.302,-0.728" style="fill:rgb(64,91,145);fill-rule:nonzero;"/>
                </g>
                <g transform="matrix(-1,0,0,1,215.736,168.9)">
                    <path d="M0,-0.852C-0.235,-0.852 -0.426,-0.661 -0.426,-0.426C-0.426,-0.19 -0.235,0 0,0C0.235,0 0.426,-0.19 0.426,-0.426C0.426,-0.661 0.235,-0.852 0,-0.852" style="fill:rgb(64,91,145);fill-rule:nonzero;"/>
                </g>
                <g transform="matrix(-0.707107,-0.707107,-0.707107,0.707107,218.114,161.704)">
                    <path d="M-0.302,-0.728C-0.536,-0.728 -0.727,-0.537 -0.728,-0.302C-0.728,-0.067 -0.537,0.124 -0.302,0.125C-0.066,0.124 0.125,-0.067 0.125,-0.302C0.124,-0.537 -0.067,-0.728 -0.302,-0.728" style="fill:rgb(64,91,145);fill-rule:nonzero;"/>
                </g>
                <g transform="matrix(1,0,0,1,246.385,162.137)">
                    <path d="M0,0.835L-6.049,0.835C-6.28,0.835 -6.467,0.648 -6.467,0.417C-6.467,0.187 -6.28,0 -6.049,0L0,0C0.231,0 0.418,0.187 0.418,0.417C0.418,0.648 0.231,0.835 0,0.835" style="fill:rgb(64,91,145);fill-rule:nonzero;"/>
                </g>
                <g transform="matrix(1,0,0,1,246.385,173.976)">
                    <path d="M0,0.835L-6.049,0.835C-6.28,0.835 -6.467,0.648 -6.467,0.417C-6.467,0.187 -6.28,0 -6.049,0L0,0C0.231,0 0.418,0.187 0.418,0.417C0.418,0.648 0.231,0.835 0,0.835" style="fill:rgb(64,91,145);fill-rule:nonzero;"/>
                </g>
                <g transform="matrix(1,0,0,1,253.905,168.058)">
                    <path d="M0,0.835L-11.299,0.835C-11.53,0.835 -11.717,0.648 -11.717,0.417C-11.717,0.187 -11.53,0 -11.299,0L0,0C0.231,0 0.418,0.187 0.418,0.417C0.418,0.648 0.231,0.835 0,0.835" style="fill:rgb(64,91,145);fill-rule:nonzero;"/>
                </g>
                <g transform="matrix(-1,0,0,1,540.56,155.712)">
                    <rect x="266.939" y="168.803" width="6.682" height="6.682" style="fill:white;"/>
                </g>
                <g transform="matrix(1,0,0,1,0,155.711)">
                    <path d="M267.457,174.967L273.102,174.967L273.102,169.322L267.457,169.322L267.457,174.967ZM274.139,176.004L266.42,176.004L266.42,168.285L274.139,168.285L274.139,176.004Z" style="fill:rgb(65,91,145);fill-rule:nonzero;"/>
                </g>
                <g transform="matrix(1,0,0,1,282.078,325.149)">
                    <path d="M0,0.835L-6.049,0.835C-6.28,0.835 -6.467,0.648 -6.467,0.417C-6.467,0.187 -6.28,0 -6.049,0L0,0C0.231,0 0.418,0.187 0.418,0.417C0.418,0.648 0.231,0.835 0,0.835" style="fill:rgb(64,91,145);fill-rule:nonzero;"/>
                </g>
                <g transform="matrix(1,0,0,1,284.351,329.728)">
                    <path d="M0,0.835L-8.175,0.835C-8.487,0.835 -8.739,0.648 -8.739,0.417C-8.739,0.187 -8.487,0 -8.175,0L0,0C0.312,0 0.564,0.187 0.564,0.417C0.564,0.648 0.312,0.835 0,0.835" style="fill:rgb(64,91,145);fill-rule:nonzero;"/>
                </g>
                <g transform="matrix(1,0,0,1,287.328,327.309)">
                    <path d="M0,0.835L-11.299,0.835C-11.53,0.835 -11.717,0.648 -11.717,0.417C-11.717,0.187 -11.53,0 -11.299,0L0,0C0.231,0 0.418,0.187 0.418,0.417C0.418,0.648 0.231,0.835 0,0.835" style="fill:rgb(64,91,145);fill-rule:nonzero;"/>
                </g>
                <g transform="matrix(1,0,0,1,0,-40.4)">
                    <rect x="120.215" y="266.859" width="6.682" height="6.682" style="fill:white;"/>
                </g>
                <g transform="matrix(1,0,0,1,0,-40.399)">
                    <path d="M120.733,273.022L126.378,273.022L126.378,267.377L120.733,267.377L120.733,273.022ZM127.415,274.059L119.696,274.059L119.696,266.34L127.415,266.34L127.415,274.059Z" style="fill:rgb(65,91,145);fill-rule:nonzero;"/>
                </g>
                <g transform="matrix(1,0,0,1,111.758,227.093)">
                    <path d="M0,0.835L6.049,0.835C6.28,0.835 6.467,0.648 6.467,0.417C6.467,0.187 6.28,0 6.049,0L0,0C-0.231,0 -0.418,0.187 -0.418,0.417C-0.418,0.648 -0.231,0.835 0,0.835" style="fill:rgb(64,91,145);fill-rule:nonzero;"/>
                </g>
                <g transform="matrix(1,0,0,1,109.485,231.672)">
                    <path d="M0,0.835L8.175,0.835C8.487,0.835 8.739,0.648 8.739,0.417C8.739,0.187 8.487,0 8.175,0L0,0C-0.312,0 -0.564,0.187 -0.564,0.417C-0.564,0.648 -0.312,0.835 0,0.835" style="fill:rgb(64,91,145);fill-rule:nonzero;"/>
                </g>
                <g transform="matrix(1,0,0,1,106.508,229.254)">
                    <path d="M0,0.835L11.299,0.835C11.53,0.835 11.717,0.648 11.717,0.417C11.717,0.187 11.53,0 11.299,0L0,0C-0.231,0 -0.418,0.187 -0.418,0.417C-0.418,0.648 -0.231,0.835 0,0.835" style="fill:rgb(64,91,145);fill-rule:nonzero;"/>
                </g>
                <g transform="matrix(-1,0,0,1,650.086,92.327)">
                    <rect x="324.006" y="159.24" width="2.074" height="89.193" style="fill:rgb(63,91,145);"/>
                </g>
                <g transform="matrix(1,0,0,1,325.271,241.813)">
                    <path d="M0,20.547L-0.456,20.547C-3.841,20.547 -6.609,17.778 -6.609,14.394L-6.609,6.153C-6.609,2.769 -3.841,0 -0.456,0L0,0C3.384,0 6.153,2.769 6.153,6.153L6.153,14.394C6.153,17.778 3.384,20.547 0,20.547" style="fill:rgb(182,208,251);fill-rule:nonzero;"/>
                </g>
                <g transform="matrix(0.163865,0.986483,0.986483,-0.163865,334.2,255.044)">
                    <path d="M1.198,-1.015C1.433,-0.314 1.668,0.386 1.904,1.087C2.061,1.558 1.357,1.888 1.198,1.414C0.962,0.714 0.727,0.013 0.492,-0.687C0.334,-1.158 1.039,-1.489 1.198,-1.015" style="fill:rgb(63,91,145);fill-rule:nonzero;"/>
                </g>
                <g transform="matrix(0.437774,0.899085,0.899085,-0.437774,333.382,250.728)">
                    <path d="M0.792,-0.454C0.951,0.104 1.189,0.623 1.49,1.118C1.752,1.544 1.051,1.882 0.792,1.458C0.451,0.901 0.205,0.315 0.027,-0.312C-0.11,-0.792 0.655,-0.933 0.792,-0.454" style="fill:rgb(63,91,145);fill-rule:nonzero;"/>
                </g>
                <g transform="matrix(0.69351,0.720447,0.720447,-0.69351,332.798,246.562)">
                    <path d="M0.735,-0.313C0.963,0.244 1.192,0.801 1.419,1.358C1.607,1.816 0.926,2.194 0.735,1.729L0.052,0.058C-0.136,-0.4 0.546,-0.777 0.735,-0.313" style="fill:rgb(63,91,145);fill-rule:nonzero;"/>
                </g>
                <g transform="matrix(0.615644,0.788024,0.788024,-0.615644,313.8,256.305)">
                    <path d="M0.769,-0.332C1.06,0.169 1.298,0.689 1.487,1.237C1.65,1.707 0.933,2.011 0.769,1.536C0.579,0.988 0.342,0.468 0.051,-0.033C-0.199,-0.463 0.521,-0.76 0.769,-0.332" style="fill:rgb(63,91,145);fill-rule:nonzero;"/>
                </g>
                <g transform="matrix(0.181238,0.983439,0.983439,-0.181238,313.78,250.321)">
                    <path d="M1.104,-0.994C1.254,-0.289 1.486,0.376 1.804,1.022C2.025,1.473 1.325,1.811 1.104,1.362C0.756,0.655 0.503,-0.083 0.339,-0.853C0.235,-1.343 1,-1.483 1.104,-0.994" style="fill:rgb(63,91,145);fill-rule:nonzero;"/>
                </g>
                <g transform="matrix(0.952687,0.303953,0.303953,-0.952687,313.693,244.897)">
                    <path d="M0.077,-0.282L1.841,-0.282C2.342,-0.281 2.308,0.496 1.81,0.496C1.222,0.496 0.634,0.496 0.046,0.496C-0.455,0.495 -0.423,-0.281 0.077,-0.282" style="fill:rgb(63,91,145);fill-rule:nonzero;"/>
                </g>
                <g transform="matrix(0.115241,-0.993338,-0.993338,-0.115241,330.406,341.503)">
                    <path d="M-1.639,10.081L10.362,10.081L11.139,3.385L-0.353,0.486L-1.639,10.081Z" style="fill:rgb(64,91,145);fill-rule:nonzero;"/>
                </g>
                <g transform="matrix(1,0,0,1,129.868,313.31)">
                    <path d="M0,-28.416C-0.306,-30.311 -1.649,-35.203 -4.603,-33.654C-9.383,-31.148 -3.618,-21.635 -9.377,-19.957C-9.685,-23.75 -10.5,-26.362 -12.212,-26.207C-15.744,-25.886 -14.805,-17.672 -14.863,-15.823C-14.92,-13.982 -15.012,-12.094 -15.095,-10.188C-19.25,-9.443 -18.429,-20.28 -20.956,-21.779C-24.885,-24.11 -25.72,-18.916 -25.612,-16.517C-25.428,-12.434 -24.33,-7.55 -20.496,-5.382C-19.231,-4.667 -17.003,-3.86 -15.267,-4.006C-15.285,-0.741 -15.145,2.504 -14.606,5.601C-14.6,5.634 -14.545,5.634 -14.539,5.601C-14.539,5.598 -14.538,5.596 -14.538,5.593L-12.211,5.719C-12.211,5.733 -12.212,5.747 -12.213,5.761C-12.234,6.785 -10.636,6.787 -10.621,5.761C-10.593,3.791 -9.382,-5.881 -9.238,-14.078C-7.379,-13.801 -5.042,-14.665 -3.703,-15.647C0.264,-18.557 0.729,-23.91 0,-28.416" style="fill:rgb(108,221,108);fill-rule:nonzero;"/>
                </g>
                <g transform="matrix(1,0,0,1,115.637,280.604)">
                    <path d="M0,37.874L2.474,38.008L2.462,38.438C2.456,38.643 2.53,38.707 2.586,38.74C2.708,38.813 2.888,38.815 3.016,38.742C3.118,38.686 3.167,38.596 3.169,38.462C3.178,37.787 3.318,36.29 3.511,34.219C3.887,30.175 4.456,24.064 4.552,18.621L4.561,18.118L5.059,18.193C6.775,18.448 9.023,17.616 10.267,16.704C14.563,13.552 14.322,7.618 13.795,4.361C13.565,2.934 12.759,0.049 11.361,-0.65C10.897,-0.883 10.397,-0.852 9.833,-0.557C7.797,0.511 7.911,3.085 8.032,5.809C8.166,8.805 8.317,12.201 4.977,13.174L4.458,13.325L4.414,12.785C4.107,9.006 3.382,7.657 2.828,7.191C2.593,6.994 2.349,6.913 2.059,6.94C-0.506,7.172 -0.31,12.859 -0.216,15.592C-0.196,16.148 -0.181,16.603 -0.19,16.898C-0.235,18.339 -0.301,19.811 -0.368,21.296L-0.439,22.891L-0.786,22.953C-3.63,23.462 -4.43,19.634 -5.137,16.254C-5.593,14.081 -6.063,11.834 -6.95,11.307C-7.913,10.737 -8.709,10.631 -9.316,10.996C-10.633,11.785 -11.011,14.589 -10.94,16.17C-10.771,19.917 -9.786,24.827 -6.047,26.941C-4.757,27.669 -2.648,28.39 -1.072,28.261L-0.591,28.221L-0.594,28.704C-0.615,32.348 -0.425,35.275 0,37.874M2.801,39.678C2.566,39.678 2.332,39.618 2.13,39.497C1.88,39.346 1.707,39.118 1.627,38.846L-0.089,38.753L-0.714,38.774L-0.81,38.382C-1.268,35.752 -1.481,32.811 -1.478,29.16C-3.389,29.159 -5.484,28.273 -6.482,27.71C-10.572,25.396 -11.643,20.179 -11.822,16.21C-11.893,14.613 -11.557,11.31 -9.77,10.239C-8.864,9.695 -7.763,9.799 -6.5,10.548C-5.278,11.272 -4.813,13.497 -4.274,16.073C-3.544,19.562 -2.888,22.074 -1.288,22.113L-1.25,21.257C-1.183,19.775 -1.117,18.308 -1.073,16.87C-1.064,16.588 -1.079,16.154 -1.098,15.623C-1.21,12.389 -1.417,6.369 1.979,6.061C2.504,6.011 2.981,6.165 3.396,6.515C4.344,7.313 4.949,9.155 5.243,12.14C7.388,11.183 7.277,8.696 7.15,5.848C7.022,2.968 6.89,-0.01 9.423,-1.338C10.245,-1.768 11.03,-1.804 11.756,-1.44C13.866,-0.384 14.591,3.752 14.667,4.22C15.226,7.675 15.465,13.985 10.789,17.416C9.486,18.372 7.289,19.212 5.425,19.114C5.305,24.466 4.756,30.361 4.39,34.3C4.206,36.275 4.061,37.833 4.052,38.474C4.045,38.925 3.824,39.303 3.445,39.515C3.247,39.624 3.024,39.678 2.801,39.678" style="fill:rgb(80,170,80);fill-rule:nonzero;"/>
                </g>
                <g transform="matrix(1,0,0,1,125.295,319.498)">
                    <path d="M0,21.453L-16.883,21.453C-17.783,21.453 -18.503,20.864 -18.673,19.988L-22.506,0.311L-20.916,0L-17.082,19.678C-17.052,19.832 -16.925,19.832 -16.883,19.832L0,19.832C0.042,19.832 0.17,19.832 0.2,19.679L4.002,0.001L5.593,0.308L1.791,19.987C1.622,20.864 0.902,21.453 0,21.453" style="fill:rgb(65,91,145);fill-rule:nonzero;"/>
                </g>
                <g transform="matrix(1,0,0,1,102.96,320.086)">
                    <path d="M0,-6.609L28.023,-6.609C28.501,-6.609 28.892,-6.081 28.892,-5.434L28.892,-1.174C28.892,-0.528 28.501,0 28.023,0L0,0C-0.478,0 -0.868,-0.528 -0.868,-1.174L-0.868,-5.434C-0.868,-6.081 -0.478,-6.609 0,-6.609" style="fill:rgb(182,208,251);fill-rule:nonzero;"/>
                </g>
                <g transform="matrix(1,0,0,1,102.96,319.644)">
                    <path d="M0,-5.726C-0.201,-5.726 -0.427,-5.412 -0.427,-4.993L-0.427,-0.733C-0.427,-0.314 -0.201,0 0,0L28.023,0C28.225,0 28.451,-0.314 28.451,-0.733L28.451,-4.993C28.451,-5.412 28.225,-5.726 28.023,-5.726L0,-5.726ZM28.023,0.883L0,0.883C-0.722,0.883 -1.31,0.158 -1.31,-0.733L-1.31,-4.993C-1.31,-5.884 -0.722,-6.609 0,-6.609L28.023,-6.609C28.746,-6.609 29.333,-5.884 29.333,-4.993L29.333,-0.733C29.333,0.158 28.746,0.883 28.023,0.883" style="fill:rgb(64,91,145);fill-rule:nonzero;"/>
                </g>
                <g transform="matrix(1,0,0,1,102.96,319.717)">
                    <path d="M0,-5.871C-0.236,-5.871 -0.499,-5.54 -0.499,-5.065L-0.499,-0.805C-0.499,-0.331 -0.236,0 0,0L28.023,0C28.26,0 28.523,-0.331 28.523,-0.805L28.523,-5.065C28.523,-5.54 28.26,-5.871 28.023,-5.871L0,-5.871ZM28.023,0.738L0,0.738C-0.682,0.738 -1.237,0.046 -1.237,-0.805L-1.237,-5.065C-1.237,-5.916 -0.682,-6.609 0,-6.609L28.023,-6.609C28.706,-6.609 29.261,-5.916 29.261,-5.065L29.261,-0.805C29.261,0.046 28.706,0.738 28.023,0.738" style="fill:rgb(182,208,251);fill-rule:nonzero;"/>
                </g>
                <g transform="matrix(1,0,0,1,103.011,319.275)">
                    <path d="M0,-4.988C-0.04,-4.944 -0.108,-4.82 -0.108,-4.623L-0.108,-0.364C-0.108,-0.138 -0.017,-0.008 0.016,0.015L27.973,0C27.94,-0.008 28.031,-0.138 28.031,-0.364L28.031,-4.623C28.031,-4.85 27.939,-4.98 27.906,-5.003L0,-4.988ZM27.973,1.621L-0.05,1.621C-0.976,1.621 -1.729,0.73 -1.729,-0.364L-1.729,-4.623C-1.729,-5.718 -0.976,-6.609 -0.05,-6.609L27.973,-6.609C28.899,-6.609 29.652,-5.718 29.652,-4.623L29.652,-0.364C29.652,0.73 28.899,1.621 27.973,1.621" style="fill:rgb(64,91,145);fill-rule:nonzero;"/>
                </g>
                <g transform="matrix(0.398799,0.917038,0.917038,-0.398799,106.156,295.933)">
                    <path d="M0.691,-0.453C0.929,-0.054 1.167,0.345 1.404,0.744C1.66,1.173 0.944,1.48 0.691,1.054C0.453,0.656 0.215,0.256 -0.022,-0.143C-0.278,-0.572 0.437,-0.878 0.691,-0.453" style="fill:rgb(80,170,80);fill-rule:nonzero;"/>
                </g>
                <g transform="matrix(0,1,1,0,108.785,290.588)">
                    <path d="M0.043,-0.735L0.734,-0.735C1.235,-0.735 1.236,0.043 0.734,0.043L0.043,0.043C-0.457,0.043 -0.458,-0.735 0.043,-0.735" style="fill:rgb(80,170,80);fill-rule:nonzero;"/>
                </g>
                <g transform="matrix(0.893992,0.448082,0.448082,-0.893992,110.496,297.559)">
                    <path d="M0.31,-0.073C0.527,0.246 0.744,0.565 0.962,0.884C1.243,1.298 0.593,1.723 0.31,1.308C0.092,0.989 -0.125,0.67 -0.343,0.351C-0.624,-0.063 0.027,-0.488 0.31,-0.073" style="fill:rgb(80,170,80);fill-rule:nonzero;"/>
                </g>
                <g transform="matrix(0.879171,0.476506,0.476506,-0.879171,106.432,306.424)">
                    <path d="M0.413,-0.105C0.634,0.338 0.856,0.782 1.078,1.225C1.301,1.67 0.637,2.077 0.413,1.629C0.191,1.186 -0.03,0.742 -0.253,0.299C-0.475,-0.146 0.188,-0.554 0.413,-0.105" style="fill:rgb(80,170,80);fill-rule:nonzero;"/>
                </g>
                <g transform="matrix(0.356936,0.934129,0.934129,-0.356936,103.983,299.391)">
                    <path d="M0.537,-0.369C0.746,-0.139 0.954,0.09 1.164,0.32C1.5,0.69 0.871,1.147 0.537,0.78C0.328,0.551 0.119,0.322 -0.09,0.092C-0.427,-0.278 0.203,-0.736 0.537,-0.369" style="fill:rgb(80,170,80);fill-rule:nonzero;"/>
                </g>
                <g transform="matrix(0.30848,0.951231,0.951231,-0.30848,109.655,303.201)">
                    <path d="M0.359,-0.304C0.428,-0.131 0.546,-0.055 0.712,0.011C1.178,0.195 0.821,0.887 0.359,0.704C-0.007,0.56 -0.236,0.293 -0.382,-0.064C-0.57,-0.528 0.171,-0.766 0.359,-0.304" style="fill:rgb(80,170,80);fill-rule:nonzero;"/>
                </g>
                <g transform="matrix(-0.793254,0.608891,0.608891,0.793254,112.504,308.327)">
                    <path d="M0.42,-1.624C0.818,-1.243 1.053,-0.838 1.191,-0.306C1.318,0.177 0.544,0.271 0.42,-0.208C0.339,-0.52 0.183,-0.781 -0.049,-1.003C-0.408,-1.345 0.059,-1.969 0.42,-1.624" style="fill:rgb(80,170,80);fill-rule:nonzero;"/>
                </g>
                <g transform="matrix(0.966048,0.258362,0.258362,-0.966048,115.188,307.313)">
                    <path d="M0.088,-0.106L0.8,-0.106C1.302,-0.105 1.308,0.672 0.807,0.672C0.57,0.672 0.331,0.672 0.095,0.672C-0.406,0.672 -0.413,-0.106 0.088,-0.106" style="fill:rgb(80,170,80);fill-rule:nonzero;"/>
                </g>
                <g transform="matrix(-0.496783,0.867875,0.867875,0.496783,119.16,299.916)">
                    <path d="M0.602,-1.303C1.006,-1.118 1.273,-0.774 1.353,-0.338C1.443,0.151 0.693,0.36 0.602,-0.134C0.556,-0.389 0.449,-0.521 0.216,-0.628C-0.239,-0.836 0.15,-1.51 0.602,-1.303" style="fill:rgb(80,170,80);fill-rule:nonzero;"/>
                </g>
                <g transform="matrix(-0.819477,0.573112,0.573112,0.819477,117.691,295.019)">
                    <path d="M0.328,-1.187C0.69,-1.064 0.903,-0.829 1.061,-0.49C1.272,-0.037 0.538,0.221 0.328,-0.229C0.259,-0.372 0.15,-0.456 0.003,-0.48C-0.472,-0.642 -0.141,-1.347 0.328,-1.187" style="fill:rgb(80,170,80);fill-rule:nonzero;"/>
                </g>
                <g transform="matrix(0,1,1,0,121.748,296.465)">
                    <path d="M0.043,-0.735L0.734,-0.735C1.235,-0.735 1.236,0.043 0.734,0.043L0.043,0.043C-0.457,0.043 -0.458,-0.735 0.043,-0.735" style="fill:rgb(80,170,80);fill-rule:nonzero;"/>
                </g>
                <g transform="matrix(0.336926,0.941531,0.941531,-0.336926,113.922,294.751)">
                    <path d="M0.456,-0.321C0.622,-0.197 0.789,-0.073 0.956,0.051C1.358,0.35 0.856,0.944 0.456,0.647C0.289,0.523 0.122,0.399 -0.045,0.276C-0.447,-0.024 0.055,-0.618 0.456,-0.321" style="fill:rgb(80,170,80);fill-rule:nonzero;"/>
                </g>
                <g transform="matrix(-0.498152,0.86709,0.86709,0.498152,115.693,288.632)">
                    <path d="M0.483,-0.435C0.561,-0.217 0.68,-0.062 0.87,0.068C1.282,0.348 0.897,1.024 0.483,0.742C0.114,0.49 -0.118,0.188 -0.268,-0.232C-0.435,-0.704 0.316,-0.904 0.483,-0.435" style="fill:rgb(80,170,80);fill-rule:nonzero;"/>
                </g>
                <g transform="matrix(0,1,1,0,117.945,286.612)">
                    <path d="M-0.129,-0.908L0.908,-0.908C1.409,-0.908 1.409,-0.129 0.908,-0.129L-0.129,-0.129C-0.629,-0.129 -0.63,-0.908 -0.129,-0.908" style="fill:rgb(80,170,80);fill-rule:nonzero;"/>
                </g>
                <g transform="matrix(0.215765,0.976445,0.976445,-0.215765,122.099,290.542)">
                    <path d="M0.444,-0.356C0.583,-0.272 0.722,-0.187 0.862,-0.104C1.291,0.156 0.872,0.811 0.444,0.552C0.304,0.468 0.165,0.383 0.025,0.3C-0.404,0.04 0.015,-0.615 0.444,-0.356" style="fill:rgb(80,170,80);fill-rule:nonzero;"/>
                </g>
                <g transform="matrix(0.570902,0.821018,0.821018,-0.570902,122.545,285.838)">
                    <path d="M0.517,-0.27C0.73,0.001 0.942,0.273 1.155,0.545C1.465,0.939 0.825,1.381 0.517,0.989L-0.122,0.174C-0.431,-0.221 0.208,-0.663 0.517,-0.27" style="fill:rgb(80,170,80);fill-rule:nonzero;"/>
                </g>
                <g transform="matrix(-0.112892,0.993607,0.993607,0.112892,124.481,279.652)">
                    <path d="M0.62,-0.696C0.823,-0.441 1.026,-0.185 1.229,0.069C1.541,0.462 0.933,0.946 0.62,0.553C0.417,0.299 0.214,0.043 0.011,-0.211C-0.3,-0.603 0.307,-1.088 0.62,-0.696" style="fill:rgb(80,170,80);fill-rule:nonzero;"/>
                </g>
                <g transform="matrix(0,1,1,0,127.711,278.402)">
                    <path d="M-0.216,-0.994L0.994,-0.994C1.494,-0.994 1.495,-0.216 0.994,-0.216L-0.216,-0.216C-0.716,-0.216 -0.717,-0.994 -0.216,-0.994" style="fill:rgb(80,170,80);fill-rule:nonzero;"/>
                </g>
                <g transform="matrix(0.940782,-0.339011,-0.339011,-0.940782,128.272,285.382)">
                    <path d="M-0.164,-0.029C0.001,0.095 0.169,0.22 0.334,0.344C0.736,0.645 0.236,1.241 -0.165,0.942C-0.331,0.817 -0.497,0.693 -0.663,0.569C-1.066,0.267 -0.565,-0.328 -0.164,-0.029" style="fill:rgb(80,170,80);fill-rule:nonzero;"/>
                </g>
                <g transform="matrix(0.854426,0.519573,0.519573,-0.854426,125.256,292.852)">
                    <path d="M0.33,-0.093C0.519,0.153 0.707,0.4 0.897,0.646C1.197,1.04 0.635,1.578 0.33,1.18C0.142,0.934 -0.047,0.687 -0.236,0.441C-0.537,0.048 0.025,-0.491 0.33,-0.093" style="fill:rgb(80,170,80);fill-rule:nonzero;"/>
                </g>
                <g transform="matrix(0.979159,-0.203093,-0.203093,-0.979159,129.034,292.075)">
                    <path d="M-0.088,0.076L0.794,0.076C1.294,0.076 1.244,0.852 0.744,0.853C0.45,0.852 0.156,0.853 -0.138,0.853C-0.638,0.852 -0.587,0.077 -0.088,0.076" style="fill:rgb(80,170,80);fill-rule:nonzero;"/>
                </g>
                <g transform="matrix(0,1,1,0,127.193,295.341)">
                    <path d="M0.303,-0.476L0.476,-0.476C0.975,-0.476 0.976,0.303 0.476,0.303L0.303,0.303C-0.198,0.303 -0.199,-0.476 0.303,-0.476" style="fill:rgb(80,170,80);fill-rule:nonzero;"/>
                </g>
                <g transform="matrix(0.992412,0.122954,0.122954,-0.992412,119.976,307.541)">
                    <path d="M0.063,-0.004C0.221,0.132 0.378,0.267 0.536,0.403C0.912,0.728 0.444,1.349 0.063,1.021C-0.095,0.885 -0.252,0.75 -0.41,0.615C-0.786,0.289 -0.318,-0.332 0.063,-0.004" style="fill:rgb(80,170,80);fill-rule:nonzero;"/>
                </g>
                <g transform="matrix(0.839912,0.542722,0.542722,-0.839912,119.341,310.161)">
                    <path d="M0.345,-0.085C0.444,0.333 0.629,0.657 0.926,0.966C1.273,1.326 0.693,1.844 0.345,1.483C-0.04,1.083 -0.287,0.619 -0.415,0.079C-0.531,-0.409 0.229,-0.572 0.345,-0.085" style="fill:rgb(80,170,80);fill-rule:nonzero;"/>
                </g>
                <g transform="matrix(0.0565798,0.998398,0.998398,-0.0565798,116.756,310.441)">
                    <path d="M0.424,-0.4C0.542,-0.348 0.66,-0.296 0.777,-0.244C1.236,-0.042 0.881,0.65 0.424,0.449C0.306,0.397 0.188,0.345 0.07,0.293C-0.389,0.091 -0.034,-0.601 0.424,-0.4" style="fill:rgb(80,170,80);fill-rule:nonzero;"/>
                </g>
                <g transform="matrix(0.444689,0.895685,0.895685,-0.444689,113.527,310.93)">
                    <path d="M0.662,-0.45C1.059,-0.16 1.3,0.196 1.426,0.67C1.555,1.153 0.791,1.301 0.662,0.818C0.59,0.55 0.459,0.363 0.235,0.201C-0.168,-0.095 0.257,-0.746 0.662,-0.45" style="fill:rgb(80,170,80);fill-rule:nonzero;"/>
                </g>
                <g transform="matrix(0.530539,0.847661,0.847661,-0.530539,119.801,303.46)">
                    <path d="M0.777,-0.43C0.996,0.044 1.215,0.516 1.435,0.99C1.643,1.438 0.987,1.855 0.777,1.402C0.557,0.928 0.337,0.456 0.117,-0.017C-0.09,-0.466 0.566,-0.883 0.777,-0.43" style="fill:rgb(80,170,80);fill-rule:nonzero;"/>
                </g>
                <g transform="matrix(0.725444,0.688282,0.688282,-0.725444,184.261,258.881)">
                    <path d="M11.641,-4.643C12.504,6.608 13.369,17.861 14.232,29.113C14.361,30.781 11.768,30.842 11.641,29.181C10.777,17.93 9.912,6.677 9.049,-4.575C8.92,-6.243 11.513,-6.304 11.641,-4.643" style="fill:rgb(215,231,255);fill-rule:nonzero;"/>
                </g>
                <g transform="matrix(0.725444,0.688282,0.688282,-0.725444,212.644,270.462)">
                    <path d="M11.641,-4.643C12.504,6.608 13.369,17.861 14.232,29.113C14.361,30.781 11.768,30.842 11.641,29.181C10.777,17.93 9.913,6.676 9.049,-4.575C8.92,-6.243 11.513,-6.304 11.641,-4.643" style="fill:rgb(215,231,255);fill-rule:nonzero;"/>
                </g>
                <g transform="matrix(0.722952,0.690898,0.690898,-0.722952,175.725,265.506)">
                    <path d="M25.402,-10.186C26.266,14.305 27.131,38.797 27.994,63.288C28.053,64.958 25.461,65.016 25.402,63.347C24.538,38.856 23.674,14.363 22.81,-10.127C22.751,-11.798 25.343,-11.855 25.402,-10.186" style="fill:rgb(215,231,255);fill-rule:nonzero;"/>
                </g>
                <g transform="matrix(-1,0,0,1,533.878,-165.936)">
                    <rect x="266.375" y="296.749" width="1.128" height="72.438" style="fill:rgb(65,91,145);"/>
                </g>
                <g transform="matrix(0,-1,-1,0,266.939,198.653)">
                    <path d="M-4.598,-4.598C-7.137,-4.598 -9.196,-2.539 -9.196,0C-9.196,2.539 -7.137,4.598 -4.598,4.598C-2.059,4.598 0,2.539 0,0C0,-2.539 -2.059,-4.598 -4.598,-4.598" style="fill:rgb(65,91,145);fill-rule:nonzero;"/>
                </g>
                <g transform="matrix(1,0,0,1,267.003,206.641)">
                    <path d="M0,12.037C-0.076,12.037 -1.577,12.022 -2.673,10.929C-3.404,10.199 -3.775,9.185 -3.775,7.916C-3.775,7.58 -3.502,7.307 -3.166,7.307C-2.83,7.307 -2.558,7.58 -2.558,7.916C-2.558,8.85 -2.307,9.574 -1.813,10.067C-1.077,10.801 -0.011,10.82 0,10.82C1.717,10.82 3.112,9.424 3.112,7.709C3.112,5.993 1.717,4.598 0.001,4.598C-0.335,4.598 -0.607,4.325 -0.607,3.989L-0.607,0.608C-0.607,0.272 -0.335,0 0.001,0C0.337,0 0.609,0.272 0.609,0.608L0.609,3.423C2.709,3.72 4.329,5.529 4.329,7.709C4.329,10.095 2.387,12.037 0.001,12.037L0,12.037Z" style="fill:rgb(65,91,145);fill-rule:nonzero;"/>
                </g>
                <g transform="matrix(1,0,0,1,242.856,216.693)">
                    <path d="M0,4.816C-0.234,4.775 -0.425,4.59 -0.461,4.342C-0.507,4.034 -0.294,3.747 0.014,3.702L24.904,0.035C25.212,-0.011 25.499,0.203 25.544,0.511C25.589,0.819 25.377,1.106 25.068,1.151L0.179,4.818C0.118,4.827 0.057,4.826 0,4.816" style="fill:rgb(65,91,145);fill-rule:nonzero;"/>
                </g>
                <g transform="matrix(1,0,0,1,290.632,216.682)">
                    <path d="M0,13.11C-0.056,13.1 -0.112,13.082 -0.165,13.054L-23.051,1.105C-23.327,0.961 -23.435,0.62 -23.29,0.344C-23.146,0.067 -22.806,-0.041 -22.529,0.105L0.357,12.054C0.634,12.198 0.741,12.539 0.597,12.815C0.48,13.038 0.235,13.151 0,13.11" style="fill:rgb(65,91,145);fill-rule:nonzero;"/>
                </g>
                <g transform="matrix(1,0,0,1,288.765,220.317)">
                    <path d="M0,57.255L-60.955,46.663C-64.149,46.108 -66.288,43.069 -65.733,39.876L-59.635,4.778C-59.08,1.585 -56.041,-0.555 -52.847,-0L8.108,10.592C11.302,11.147 13.441,14.186 12.886,17.38L6.788,52.477C6.233,55.671 3.194,57.81 0,57.255" style="fill:white;fill-rule:nonzero;"/>
                </g>
                <g transform="matrix(1,0,0,1,235.087,276.303)">
                    <path d="M0,-55.261C-2.532,-55.261 -4.78,-53.439 -5.228,-50.86L-11.252,-16.192C-11.495,-14.795 -11.179,-13.386 -10.363,-12.227C-9.547,-11.067 -8.328,-10.294 -6.93,-10.051L53.596,0.465C56.477,0.97 59.233,-0.972 59.736,-3.857L65.76,-38.525C66.003,-39.922 65.687,-41.33 64.871,-42.49C64.054,-43.65 62.835,-44.422 61.438,-44.665L0.911,-55.183C0.606,-55.236 0.301,-55.261 0,-55.261M54.509,2.1C54.12,2.1 53.726,2.067 53.329,1.998L-7.197,-8.519C-9.004,-8.833 -10.58,-9.832 -11.635,-11.331C-12.691,-12.831 -13.099,-14.651 -12.785,-16.458L-6.761,-51.126C-6.113,-54.855 -2.551,-57.361 1.178,-56.715L61.704,-46.197C63.51,-45.884 65.087,-44.885 66.143,-43.385C67.198,-41.886 67.606,-40.065 67.293,-38.259L61.269,-3.59C60.689,-0.256 57.782,2.099 54.509,2.1" style="fill:rgb(65,91,145);fill-rule:nonzero;"/>
                </g>
                <g transform="matrix(1,0,0,1,288.308,224.118)">
                    <path d="M0,49.653L-58.786,39.438C-60.826,39.084 -62.193,37.142 -61.839,35.102L-56.269,3.052C-55.915,1.011 -53.973,-0.355 -51.933,-0.001L6.853,10.214C8.894,10.569 10.26,12.51 9.906,14.551L4.337,46.6C3.982,48.641 2.041,50.008 0,49.653" style="fill:rgb(182,208,251);fill-rule:nonzero;"/>
                </g>
                <g transform="matrix(1,0,0,1,288.303,224.535)">
                    <path d="M0,48.446C0.818,48.588 1.645,48.402 2.324,47.925C3.004,47.447 3.457,46.732 3.598,45.914L9.12,14.138C9.414,12.448 8.277,10.834 6.588,10.54L-51.924,0.373C-53.611,0.081 -55.228,1.215 -55.523,2.906L-61.044,34.681C-61.186,35.5 -61.001,36.325 -60.522,37.005C-60.044,37.684 -59.33,38.137 -58.511,38.279L0,48.446ZM0.543,50.049C0.274,50.049 0.004,50.026 -0.265,49.979L-58.777,39.812C-60.005,39.598 -61.077,38.919 -61.794,37.901C-62.512,36.881 -62.79,35.643 -62.576,34.415L-57.055,2.639C-56.615,0.104 -54.197,-1.603 -51.658,-1.16L6.853,9.008C9.389,9.448 11.094,11.869 10.653,14.404L5.132,46.179C4.918,47.408 4.239,48.479 3.22,49.197C2.425,49.758 1.496,50.049 0.543,50.049" style="fill:rgb(64,91,145);fill-rule:nonzero;"/>
                </g>
                <g transform="matrix(1,0,0,1,260.42,259.09)">
                    <path d="M0,9.835L15.211,-4.106L23.629,13.941L0,9.835Z" style="fill:white;fill-rule:nonzero;"/>
                </g>
                <g transform="matrix(1,0,0,1,261.549,259.242)">
                    <path d="M0,9.353L21.611,13.108L13.911,-3.398L0,9.353ZM23.391,14.47L-2.256,10.013L14.254,-5.117L23.391,14.47Z" style="fill:rgb(65,91,145);fill-rule:nonzero;"/>
                </g>
                <g transform="matrix(1,0,0,1,230.343,246.262)">
                    <path d="M0,17.437L26.968,-7.279L41.892,24.716L0,17.437Z" style="fill:white;fill-rule:nonzero;"/>
                </g>
                <g transform="matrix(1,0,0,1,231.47,246.414)">
                    <path d="M0,16.955L39.875,23.884L25.669,-6.571L0,16.955ZM41.655,25.245L-2.255,17.615L26.011,-8.29L41.655,25.245Z" style="fill:rgb(65,91,145);fill-rule:nonzero;"/>
                </g>
                <g transform="matrix(0.171168,-0.985242,-0.985242,-0.171168,286.934,239.474)">
                    <path d="M-3.716,-3.125C-5.798,-3.124 -7.486,-1.436 -7.487,0.646C-7.486,2.729 -5.798,4.417 -3.716,4.418C-1.633,4.417 0.056,2.729 0.056,0.646C0.055,-1.436 -1.633,-3.125 -3.716,-3.125" style="fill:white;fill-rule:nonzero;"/>
                </g>
                <g transform="matrix(1,0,0,1,285.655,246.146)">
                    <path d="M0,-6.376C-0.664,-6.376 -1.312,-6.172 -1.866,-5.782C-2.576,-5.282 -3.049,-4.535 -3.198,-3.679C-3.346,-2.823 -3.153,-1.96 -2.653,-1.25C-2.153,-0.539 -1.406,-0.066 -0.55,0.082C0.301,0.231 1.168,0.038 1.879,-0.462C2.59,-0.963 3.063,-1.71 3.211,-2.565C3.518,-4.333 2.33,-6.02 0.563,-6.327C0.376,-6.36 0.187,-6.376 0,-6.376M0.015,1.169C-0.231,1.169 -0.48,1.147 -0.728,1.104C-3.059,0.699 -4.624,-1.526 -4.219,-3.856C-4.024,-4.985 -3.4,-5.97 -2.462,-6.63C-1.526,-7.289 -0.39,-7.545 0.741,-7.349C1.87,-7.153 2.855,-6.528 3.514,-5.592C4.174,-4.655 4.429,-3.517 4.232,-2.388C4.037,-1.259 3.413,-0.274 2.475,0.386C1.745,0.9 0.891,1.169 0.015,1.169" style="fill:rgb(65,91,145);fill-rule:nonzero;"/>
                </g>
                <g transform="matrix(-1,0,0,1,570.611,-237.026)">
                    <rect x="257.042" y="365.403" width="56.527" height="6.22" style="fill:rgb(182,208,251);"/>
                </g>
                <g transform="matrix(1,0,0,1,0,-151.958)">
                    <path d="M345.783,407.082L360.836,407.082L360.836,244.874L345.783,244.874L345.783,407.082ZM362.693,408.939L343.928,408.939L343.928,243.019L362.693,243.019L362.693,408.939Z" style="fill:rgb(65,91,145);fill-rule:nonzero;"/>
                </g>
                <g transform="matrix(1,0,0,1,0,-299.749)">
                    <path d="M346.043,407.141L360.577,407.141L360.577,392.607L346.043,392.607L346.043,407.141ZM362.458,409.022L344.163,409.022L344.163,390.727L362.458,390.727L362.458,409.022Z" style="fill:rgb(65,91,145);fill-rule:nonzero;"/>
                </g>
                <g transform="matrix(-0.707107,-0.707107,-0.707107,0.707107,354.251,88.5188)">
                    <rect x="-19.148" y="7.932" width="23.213" height="1.881" style="fill:rgb(65,91,145);"/>
                </g>
                <g transform="matrix(-0.707107,-0.707107,-0.707107,0.707107,364.917,99.1852)">
                    <rect x="6.602" y="-2.734" width="1.881" height="23.213" style="fill:rgb(65,91,145);"/>
                </g>
                <g transform="matrix(1,0,0,1,0,-266.921)">
                    <path d="M346.043,390.727L360.577,390.727L360.577,376.193L346.043,376.193L346.043,390.727ZM362.458,392.608L344.163,392.608L344.163,374.313L362.458,374.313L362.458,392.608Z" style="fill:rgb(65,91,145);fill-rule:nonzero;"/>
                </g>
                <g transform="matrix(-0.707107,-0.707107,-0.707107,0.707107,354.251,104.933)">
                    <rect x="-19.148" y="7.932" width="23.213" height="1.881" style="fill:rgb(65,91,145);"/>
                </g>
                <g transform="matrix(-0.707107,-0.707107,-0.707107,0.707107,364.917,115.599)">
                    <rect x="6.602" y="-2.734" width="1.881" height="23.213" style="fill:rgb(65,91,145);"/>
                </g>
                <g transform="matrix(1,0,0,1,0,-234.093)">
                    <path d="M346.043,374.314L360.577,374.314L360.577,359.78L346.043,359.78L346.043,374.314ZM362.458,376.194L344.163,376.194L344.163,357.899L362.458,357.899L362.458,376.194Z" style="fill:rgb(65,91,145);fill-rule:nonzero;"/>
                </g>
                <g transform="matrix(-0.707107,-0.707107,-0.707107,0.707107,354.251,121.347)">
                    <rect x="-19.148" y="7.932" width="23.213" height="1.881" style="fill:rgb(65,91,145);"/>
                </g>
                <g transform="matrix(-0.707107,-0.707107,-0.707107,0.707107,364.917,132.014)">
                    <rect x="6.602" y="-2.734" width="1.881" height="23.213" style="fill:rgb(65,91,145);"/>
                </g>
                <g transform="matrix(1,0,0,1,0,-201.263)">
                    <path d="M346.043,357.898L360.577,357.898L360.577,343.364L346.043,343.364L346.043,357.898ZM362.458,359.779L344.163,359.779L344.163,341.484L362.458,341.484L362.458,359.779Z" style="fill:rgb(65,91,145);fill-rule:nonzero;"/>
                </g>
                <g transform="matrix(-0.707107,-0.707107,-0.707107,0.707107,354.251,137.762)">
                    <rect x="-19.148" y="7.932" width="23.213" height="1.881" style="fill:rgb(65,91,145);"/>
                </g>
                <g transform="matrix(-0.707107,-0.707107,-0.707107,0.707107,364.917,148.428)">
                    <rect x="6.602" y="-2.734" width="1.881" height="23.213" style="fill:rgb(65,91,145);"/>
                </g>
                <g transform="matrix(1,0,0,1,0,-168.435)">
                    <path d="M346.043,341.484L360.577,341.484L360.577,326.95L346.043,326.95L346.043,341.484ZM362.458,343.365L344.163,343.365L344.163,325.07L362.458,325.07L362.458,343.365Z" style="fill:rgb(65,91,145);fill-rule:nonzero;"/>
                </g>
                <g transform="matrix(-0.707107,-0.707107,-0.707107,0.707107,354.251,154.176)">
                    <rect x="-19.148" y="7.932" width="23.213" height="1.881" style="fill:rgb(65,91,145);"/>
                </g>
                <g transform="matrix(-0.707107,-0.707107,-0.707107,0.707107,364.917,164.842)">
                    <rect x="6.602" y="-2.734" width="1.881" height="23.213" style="fill:rgb(65,91,145);"/>
                </g>
                <g transform="matrix(1,0,0,1,0,-135.607)">
                    <path d="M346.043,325.071L360.577,325.071L360.577,310.537L346.043,310.537L346.043,325.071ZM362.458,326.951L344.163,326.951L344.163,308.656L362.458,308.656L362.458,326.951Z" style="fill:rgb(65,91,145);fill-rule:nonzero;"/>
                </g>
                <g transform="matrix(-0.707107,-0.707107,-0.707107,0.707107,354.251,170.59)">
                    <rect x="-19.148" y="7.932" width="23.213" height="1.881" style="fill:rgb(65,91,145);"/>
                </g>
                <g transform="matrix(-0.707107,-0.707107,-0.707107,0.707107,364.917,181.257)">
                    <rect x="6.602" y="-2.734" width="1.881" height="23.213" style="fill:rgb(65,91,145);"/>
                </g>
                <g transform="matrix(1,0,0,1,0,-102.777)">
                    <path d="M346.043,308.655L360.577,308.655L360.577,294.121L346.043,294.121L346.043,308.655ZM362.458,310.536L344.163,310.536L344.163,292.241L362.458,292.241L362.458,310.536Z" style="fill:rgb(65,91,145);fill-rule:nonzero;"/>
                </g>
                <g transform="matrix(-0.707107,-0.707107,-0.707107,0.707107,354.251,187.005)">
                    <rect x="-19.148" y="7.932" width="23.213" height="1.881" style="fill:rgb(65,91,145);"/>
                </g>
                <g transform="matrix(-0.707107,-0.707107,-0.707107,0.707107,364.917,197.671)">
                    <rect x="6.602" y="-2.734" width="1.881" height="23.213" style="fill:rgb(65,91,145);"/>
                </g>
                <g transform="matrix(1,0,0,1,0,-69.949)">
                    <path d="M346.043,292.241L360.577,292.241L360.577,277.707L346.043,277.707L346.043,292.241ZM362.458,294.122L344.163,294.122L344.163,275.827L362.458,275.827L362.458,294.122Z" style="fill:rgb(65,91,145);fill-rule:nonzero;"/>
                </g>
                <g transform="matrix(-0.707107,-0.707107,-0.707107,0.707107,354.251,203.419)">
                    <rect x="-19.148" y="7.932" width="23.213" height="1.881" style="fill:rgb(65,91,145);"/>
                </g>
                <g transform="matrix(-0.707107,-0.707107,-0.707107,0.707107,364.917,214.085)">
                    <rect x="6.602" y="-2.734" width="1.881" height="23.213" style="fill:rgb(65,91,145);"/>
                </g>
                <g transform="matrix(1,0,0,1,0,-37.121)">
                    <path d="M346.043,275.827L360.577,275.827L360.577,261.293L346.043,261.293L346.043,275.827ZM362.458,277.708L344.163,277.708L344.163,259.413L362.458,259.413L362.458,277.708Z" style="fill:rgb(65,91,145);fill-rule:nonzero;"/>
                </g>
                <g transform="matrix(-0.707107,-0.707107,-0.707107,0.707107,354.251,219.833)">
                    <rect x="-19.148" y="7.932" width="23.213" height="1.881" style="fill:rgb(65,91,145);"/>
                </g>
                <g transform="matrix(-0.707107,-0.707107,-0.707107,0.707107,364.917,230.499)">
                    <rect x="6.602" y="-2.734" width="1.881" height="23.213" style="fill:rgb(65,91,145);"/>
                </g>
                <g transform="matrix(1,0,0,1,0,-4.293)">
                    <path d="M346.043,259.414L360.577,259.414L360.577,244.88L346.043,244.88L346.043,259.414ZM362.458,261.294L344.163,261.294L344.163,242.999L362.458,242.999L362.458,261.294Z" style="fill:rgb(65,91,145);fill-rule:nonzero;"/>
                </g>
                <g transform="matrix(-0.707107,-0.707107,-0.707107,0.707107,354.251,236.248)">
                    <rect x="-19.148" y="7.932" width="23.213" height="1.881" style="fill:rgb(65,91,145);"/>
                </g>
                <g transform="matrix(-0.707107,-0.707107,-0.707107,0.707107,364.917,246.914)">
                    <rect x="6.602" y="-2.734" width="1.881" height="23.213" style="fill:rgb(65,91,145);"/>
                </g>
                <g transform="matrix(1,0,0,1,0,-267.415)">
                    <path d="M378.704,390.974L393.238,390.974L393.238,376.44L378.704,376.44L378.704,390.974ZM395.119,392.855L376.824,392.855L376.824,374.56L395.119,374.56L395.119,392.855Z" style="fill:rgb(65,91,145);fill-rule:nonzero;"/>
                </g>
                <g transform="matrix(-0.707107,-0.707107,-0.707107,0.707107,397.578,115.352)">
                    <rect x="6.602" y="-2.734" width="1.881" height="23.213" style="fill:rgb(65,91,145);"/>
                </g>
                <g transform="matrix(-0.707107,-0.707107,-0.707107,0.707107,386.912,104.686)">
                    <rect x="-19.148" y="7.932" width="23.213" height="1.881" style="fill:rgb(65,91,145);"/>
                </g>
                <g transform="matrix(1,0,0,1,0,-267.415)">
                    <path d="M362.29,390.974L376.824,390.974L376.824,376.44L362.29,376.44L362.29,390.974ZM378.704,392.855L360.409,392.855L360.409,374.56L378.704,374.56L378.704,392.855Z" style="fill:rgb(65,91,145);fill-rule:nonzero;"/>
                </g>
                <g transform="matrix(-0.707107,-0.707107,-0.707107,0.707107,381.164,115.352)">
                    <rect x="6.602" y="-2.734" width="1.881" height="23.213" style="fill:rgb(65,91,145);"/>
                </g>
                <g transform="matrix(-0.707107,-0.707107,-0.707107,0.707107,370.498,104.686)">
                    <rect x="-19.148" y="7.932" width="23.213" height="1.881" style="fill:rgb(65,91,145);"/>
                </g>
                <g transform="matrix(1,0,0,1,0,-267.415)">
                    <path d="M345.876,390.974L360.41,390.974L360.41,376.44L345.876,376.44L345.876,390.974ZM362.29,392.855L343.995,392.855L343.995,374.56L362.29,374.56L362.29,392.855Z" style="fill:rgb(65,91,145);fill-rule:nonzero;"/>
                </g>
                <g transform="matrix(1,0,0,1,0,-267.415)">
                    <path d="M329.462,390.974L343.996,390.974L343.996,376.44L329.462,376.44L329.462,390.974ZM345.876,392.855L327.581,392.855L327.581,374.56L345.876,374.56L345.876,392.855Z" style="fill:rgb(65,91,145);fill-rule:nonzero;"/>
                </g>
                <g transform="matrix(-0.707107,-0.707107,-0.707107,0.707107,348.335,115.352)">
                    <rect x="6.602" y="-2.734" width="1.881" height="23.213" style="fill:rgb(65,91,145);"/>
                </g>
                <g transform="matrix(-0.707107,-0.707107,-0.707107,0.707107,337.669,104.686)">
                    <rect x="-19.148" y="7.932" width="23.213" height="1.881" style="fill:rgb(65,91,145);"/>
                </g>
                <g transform="matrix(1,0,0,1,0,-267.415)">
                    <path d="M313.047,390.974L327.581,390.974L327.581,376.44L313.047,376.44L313.047,390.974ZM329.462,392.855L311.167,392.855L311.167,374.56L329.462,374.56L329.462,392.855Z" style="fill:rgb(65,91,145);fill-rule:nonzero;"/>
                </g>
                <g transform="matrix(-0.707107,-0.707107,-0.707107,0.707107,331.92,115.352)">
                    <rect x="6.602" y="-2.735" width="1.88" height="23.214" style="fill:rgb(65,91,145);"/>
                </g>
                <g transform="matrix(-0.707128,-0.707085,-0.707085,0.707128,321.254,104.685)">
                    <rect x="-19.149" y="7.932" width="23.214" height="1.881" style="fill:rgb(65,91,145);"/>
                </g>
                <g transform="matrix(1,0,0,1,0,-267.415)">
                    <path d="M296.633,390.974L311.167,390.974L311.167,376.44L296.633,376.44L296.633,390.974ZM313.047,392.855L294.752,392.855L294.752,374.56L313.047,374.56L313.047,392.855Z" style="fill:rgb(65,91,145);fill-rule:nonzero;"/>
                </g>
                <g transform="matrix(1,0,0,1,295.693,107.42)">
                    <path d="M0,18.02L-16.414,18.02C-16.794,18.02 -17.137,17.791 -17.283,17.439C-17.428,17.088 -17.348,16.684 -17.079,16.415L-0.665,0L0.665,1.33L-14.144,16.139L-0.389,16.139L15.749,0L17.079,1.33L0.665,17.745C0.489,17.921 0.249,18.02 0,18.02" style="fill:rgb(65,91,145);fill-rule:nonzero;"/>
                </g>
                <g transform="matrix(-0.707107,-0.707107,-0.707107,0.707107,304.84,104.686)">
                    <rect x="-19.148" y="7.932" width="23.213" height="1.881" style="fill:rgb(65,91,145);"/>
                </g>
                <g transform="matrix(1,0,0,1,0,32.255)">
                    <path d="M345.86,241.14L360.799,241.14L360.799,226.606L345.86,226.606L345.86,241.14ZM362.733,243.02L343.927,243.02L343.927,224.725L362.733,224.725L362.733,243.02Z" style="fill:rgb(65,91,145);fill-rule:nonzero;"/>
                </g>
                <g transform="matrix(-0.716768,-0.697311,-0.697311,0.716768,353.96,254.363)">
                    <rect x="-19.496" y="7.919" width="23.487" height="1.907" style="fill:rgb(65,91,145);"/>
                </g>
                <g transform="matrix(-0.71674,-0.69734,-0.69734,0.71674,365.074,265.176)">
                    <path d="M7.123,20.637L9.03,20.637L8.384,-2.893L6.476,-2.893L7.123,20.637Z" style="fill:rgb(65,91,145);fill-rule:nonzero;"/>
                </g>
                <g transform="matrix(1,0,0,1,0,163.569)">
                    <path d="M345.86,175.483L360.799,175.483L360.799,160.949L345.86,160.949L345.86,175.483ZM362.733,177.363L343.927,177.363L343.927,159.068L362.733,159.068L362.733,177.363Z" style="fill:rgb(65,91,145);fill-rule:nonzero;"/>
                </g>
                <g transform="matrix(-0.716768,-0.697311,-0.697311,0.716768,353.96,320.02)">
                    <rect x="-19.496" y="7.919" width="23.487" height="1.907" style="fill:rgb(65,91,145);"/>
                </g>
                <g transform="matrix(-0.71674,-0.69734,-0.69734,0.71674,365.074,330.833)">
                    <path d="M7.123,20.637L9.03,20.637L8.384,-2.893L6.476,-2.893L7.123,20.637Z" style="fill:rgb(65,91,145);fill-rule:nonzero;"/>
                </g>
                <g transform="matrix(1,0,0,1,0,61.973)">
                    <path d="M345.86,226.281L360.799,226.281L360.799,211.747L345.86,211.747L345.86,226.281ZM362.733,228.161L343.927,228.161L343.927,209.866L362.733,209.866L362.733,228.161Z" style="fill:rgb(65,91,145);fill-rule:nonzero;"/>
                </g>
                <g transform="matrix(-0.716768,-0.697311,-0.697311,0.716768,353.96,269.222)">
                    <rect x="-19.496" y="7.919" width="23.487" height="1.907" style="fill:rgb(65,91,145);"/>
                </g>
                <g transform="matrix(-0.71674,-0.69734,-0.69734,0.71674,365.074,280.034)">
                    <path d="M7.123,20.637L9.03,20.637L8.384,-2.893L6.476,-2.893L7.123,20.637Z" style="fill:rgb(65,91,145);fill-rule:nonzero;"/>
                </g>
                <g transform="matrix(1,0,0,1,0,94.801)">
                    <path d="M345.86,209.867L360.799,209.867L360.799,195.333L345.86,195.333L345.86,209.867ZM362.733,211.747L343.927,211.747L343.927,193.452L362.733,193.452L362.733,211.747Z" style="fill:rgb(65,91,145);fill-rule:nonzero;"/>
                </g>
                <g transform="matrix(-0.716768,-0.697311,-0.697311,0.716768,353.96,285.636)">
                    <rect x="-19.496" y="7.919" width="23.487" height="1.907" style="fill:rgb(65,91,145);"/>
                </g>
                <g transform="matrix(-0.71674,-0.69734,-0.69734,0.71674,365.074,296.449)">
                    <path d="M7.123,20.637L9.03,20.637L8.384,-2.893L6.476,-2.893L7.123,20.637Z" style="fill:rgb(65,91,145);fill-rule:nonzero;"/>
                </g>
                <g transform="matrix(1,0,0,1,0,127.629)">
                    <path d="M345.86,193.453L360.799,193.453L360.799,178.919L345.86,178.919L345.86,193.453ZM362.733,195.333L343.927,195.333L343.927,177.038L362.733,177.038L362.733,195.333Z" style="fill:rgb(65,91,145);fill-rule:nonzero;"/>
                </g>
                <g transform="matrix(-0.716768,-0.697311,-0.697311,0.716768,353.96,302.05)">
                    <rect x="-19.496" y="7.919" width="23.487" height="1.907" style="fill:rgb(65,91,145);"/>
                </g>
                <g transform="matrix(-0.71674,-0.69734,-0.69734,0.71674,365.074,312.863)">
                    <path d="M7.123,20.637L9.03,20.637L8.384,-2.893L6.476,-2.893L7.123,20.637Z" style="fill:rgb(65,91,145);fill-rule:nonzero;"/>
                </g>
                <g transform="matrix(1,0,0,1,152.86,187.421)">
                    <path d="M0,3.111C2.002,3.111 2.005,0 0,0C-2.002,0 -2.005,3.111 0,3.111" style="fill:rgb(64,91,145);fill-rule:nonzero;"/>
                </g>
                <g transform="matrix(1,0,0,1,321.558,154.926)">
                    <path d="M0,3.111C2.002,3.111 2.005,0 0,0C-2.002,0 -2.005,3.111 0,3.111" style="fill:rgb(64,91,145);fill-rule:nonzero;"/>
                </g>
                <g transform="matrix(1,0,0,1,391.388,266.239)">
                    <path d="M0,3.111L0.691,3.111C1.505,3.111 2.285,2.395 2.247,1.555C2.209,0.713 1.564,0 0.691,0L0,0C-0.814,0 -1.593,0.715 -1.556,1.555C-1.518,2.398 -0.872,3.111 0,3.111" style="fill:rgb(64,91,145);fill-rule:nonzero;"/>
                </g>
                <g transform="matrix(1,0,0,1,91.327,289.055)">
                    <path d="M0,3.111C2.002,3.111 2.005,0 0,0C-2.002,0 -2.005,3.111 0,3.111" style="fill:rgb(64,91,145);fill-rule:nonzero;"/>
                </g>
                <g transform="matrix(1,0,0,1,239.975,139.716)">
                    <path d="M0,3.111C2.002,3.111 2.005,0 0,0C-2.002,0 -2.005,3.111 0,3.111" style="fill:rgb(64,91,145);fill-rule:nonzero;"/>
                </g>
            </g>
        </g>
    </g>
    <g id="DESIGNED-BY-FREEPIK" serif:id="DESIGNED BY FREEPIK">
    </g>
</svg>
